<svg xmlns="http://www.w3.org/2000/svg" xmlns:xlink="http://www.w3.org/1999/xlink" contentStyleType="text/css" height="695px" preserveAspectRatio="none" style="width:1287px;height:695px;background:#FFFFFF;" version="1.1" viewBox="0 0 1287 695" width="1287px" zoomAndPan="magnify"><title>Bodegas: caso con extensiones para examen</title><defs/><g><text fill="#000000" font-family="sans-serif" font-size="14" font-weight="bold" lengthAdjust="spacing" textLength="354.2246" x="459.4729" y="22.9951">Bodegas: caso con extensiones para examen</text><!--class Bodega--><g id="elem_Bodega"><rect codeLine="0" fill="#F1F1F1" height="66.8906" id="Bodega" rx="2.5" ry="2.5" style="stroke:#181818;stroke-width:0.5;" width="208.9297" x="541.5" y="44.2969"/><text fill="#000000" font-family="sans-serif" font-size="14" lengthAdjust="spacing" textLength="53.1357" x="619.397" y="62.292">Bodega</text><line style="stroke:#181818;stroke-width:0.5;" x1="542.5" x2="749.4297" y1="70.5938" y2="70.5938"/><text fill="#000000" font-family="sans-serif" font-size="14" lengthAdjust="spacing" textLength="105.2803" x="547.5" y="87.5889">nombre: String</text><text fill="#000000" font-family="sans-serif" font-size="14" lengthAdjust="spacing" textLength="196.9297" x="547.5" y="103.8857">denominaci&#243;nOrigen: String</text></g><!--class Vino--><g id="elem_Vino"><rect codeLine="5" fill="#F1F1F1" height="66.8906" id="Vino" rx="2.5" ry="2.5" style="stroke:#181818;stroke-width:0.5;" width="118.7432" x="586.5" y="188.2969"/><text fill="#000000" font-family="sans-serif" font-size="14" lengthAdjust="spacing" textLength="30.9053" x="630.4189" y="206.292">Vino</text><line style="stroke:#181818;stroke-width:0.5;" x1="587.5" x2="704.2432" y1="214.5938" y2="214.5938"/><text fill="#000000" font-family="sans-serif" font-size="14" lengthAdjust="spacing" textLength="105.2803" x="592.5" y="231.5889">nombre: String</text><text fill="#000000" font-family="sans-serif" font-size="14" lengthAdjust="spacing" textLength="106.7432" x="592.5" y="247.8857">grados: Double</text></g><!--class Crianza--><g id="elem_Crianza"><rect codeLine="11" fill="#F1F1F1" height="66.8906" id="Crianza" rx="2.5" ry="2.5" style="stroke:#181818;stroke-width:0.5;" width="170.4707" x="148" y="339.2969"/><text fill="#000000" font-family="sans-serif" font-size="14" lengthAdjust="spacing" textLength="52.8008" x="206.835" y="357.292">Crianza</text><line style="stroke:#181818;stroke-width:0.5;" x1="149" x2="317.4707" y1="365.5938" y2="365.5938"/><text fill="#000000" font-family="sans-serif" font-size="14" lengthAdjust="spacing" textLength="158.4707" x="154" y="382.5889">tiempoBarrica: Integer</text><text fill="#000000" font-family="sans-serif" font-size="14" lengthAdjust="spacing" textLength="157.2402" x="154" y="398.8857">tiempoBotella: Integer</text></g><!--class Joven--><g id="elem_Joven"><rect codeLine="15" fill="#F1F1F1" height="66.8906" id="Joven" rx="2.5" ry="2.5" style="stroke:#181818;stroke-width:0.5;" width="170.4707" x="1069" y="339.2969"/><text fill="#000000" font-family="sans-serif" font-size="14" lengthAdjust="spacing" textLength="38.4658" x="1135.0024" y="357.292">Joven</text><line style="stroke:#181818;stroke-width:0.5;" x1="1070" x2="1238.4707" y1="365.5938" y2="365.5938"/><text fill="#000000" font-family="sans-serif" font-size="14" lengthAdjust="spacing" textLength="158.4707" x="1075" y="382.5889">tiempoBarrica: Integer</text><text fill="#000000" font-family="sans-serif" font-size="14" lengthAdjust="spacing" textLength="157.2402" x="1075" y="398.8857">tiempoBotella: Integer</text></g><!--class Uva--><g id="elem_Uva"><rect codeLine="19" fill="#F1F1F1" height="50.5938" id="Uva" rx="2.5" ry="2.5" style="stroke:#181818;stroke-width:0.5;" width="117.2803" x="329.5" y="196.2969"/><text fill="#000000" font-family="sans-serif" font-size="14" lengthAdjust="spacing" textLength="27.1113" x="374.5845" y="214.292">Uva</text><line style="stroke:#181818;stroke-width:0.5;" x1="330.5" x2="445.7803" y1="222.5938" y2="222.5938"/><text fill="#000000" font-family="sans-serif" font-size="14" lengthAdjust="spacing" textLength="105.2803" x="335.5" y="239.5889">nombre: String</text></g><!--class Cosecha--><g id="elem_Cosecha"><rect codeLine="22" fill="#F1F1F1" height="66.8906" id="Cosecha" rx="2.5" ry="2.5" style="stroke:#181818;stroke-width:0.5;" width="113.3564" x="176.5" y="497.2969"/><text fill="#000000" font-family="sans-serif" font-size="14" lengthAdjust="spacing" textLength="59.3975" x="203.4795" y="515.292">Cosecha</text><line style="stroke:#181818;stroke-width:0.5;" x1="177.5" x2="288.8564" y1="523.5938" y2="523.5938"/><text fill="#000000" font-family="sans-serif" font-size="14" lengthAdjust="spacing" textLength="66.6846" x="182.5" y="540.5889">a&#241;o: Year</text><text fill="#000000" font-family="sans-serif" font-size="14" lengthAdjust="spacing" textLength="101.3564" x="182.5" y="556.8857">calidad: String</text></g><!--class Reserva--><g id="elem_Reserva"><rect codeLine="47" fill="#FFFF00" height="80.8594" id="Reserva" rx="2.5" ry="2.5" style="stroke:#181818;stroke-width:0.5;" width="170.4707" x="533" y="332.2969"/><text fill="#000000" font-family="sans-serif" font-size="12" font-style="italic" lengthAdjust="spacing" textLength="53.2207" x="591.625" y="348.4355">&#171;Nuevo&#187;</text><text fill="#000000" font-family="sans-serif" font-size="14" lengthAdjust="spacing" textLength="56.8682" x="589.8013" y="364.2607">Reserva</text><line style="stroke:#181818;stroke-width:0.5;" x1="534" x2="702.4707" y1="372.5625" y2="372.5625"/><text fill="#000000" font-family="sans-serif" font-size="14" lengthAdjust="spacing" textLength="158.4707" x="539" y="389.5576">tiempoBarrica: Integer</text><text fill="#000000" font-family="sans-serif" font-size="14" lengthAdjust="spacing" textLength="157.2402" x="539" y="405.8545">tiempoBotella: Integer</text></g><!--class Valoraci?n--><g id="elem_Valoraci&#243;n"><rect codeLine="51" fill="#FFFF00" height="80.8594" id="Valoraci&#243;n" rx="2.5" ry="2.5" style="stroke:#181818;stroke-width:0.5;" width="160.9619" x="537.5" y="490.2969"/><text fill="#000000" font-family="sans-serif" font-size="12" font-style="italic" lengthAdjust="spacing" textLength="53.2207" x="591.3706" y="506.4355">&#171;Nuevo&#187;</text><text fill="#000000" font-family="sans-serif" font-size="14" lengthAdjust="spacing" textLength="73.9717" x="580.9951" y="522.2607">Valoraci&#243;n</text><line style="stroke:#181818;stroke-width:0.5;" x1="538.5" x2="697.4619" y1="530.5625" y2="530.5625"/><text fill="#000000" font-family="sans-serif" font-size="14" lengthAdjust="spacing" textLength="148.9619" x="543.5" y="547.5576">ranking: TipoRanking</text><text fill="#000000" font-family="sans-serif" font-size="14" lengthAdjust="spacing" textLength="138.127" x="543.5" y="563.8545">puntuaci&#243;n: Integer</text></g><!--class TipoRanking--><g id="elem_TipoRanking"><rect codeLine="55" fill="#FFFF00" height="113.4531" id="TipoRanking" rx="2.5" ry="2.5" style="stroke:#181818;stroke-width:0.5;" width="95.3779" x="407.5" y="474.2969"/><text fill="#000000" font-family="sans-serif" font-size="12" font-style="italic" lengthAdjust="spacing" textLength="53.2207" x="428.5786" y="490.4355">&#171;Nuevo&#187;</text><text fill="#000000" font-family="sans-serif" font-size="14" lengthAdjust="spacing" textLength="86.8301" x="411.7739" y="506.2607">TipoRanking</text><line style="stroke:#181818;stroke-width:0.5;" x1="408.5" x2="501.8779" y1="514.5625" y2="514.5625"/><text fill="#000000" font-family="sans-serif" font-size="14" lengthAdjust="spacing" textLength="42.3623" x="413.5" y="531.5576">PE&#209;&#205;N</text><text fill="#000000" font-family="sans-serif" font-size="14" lengthAdjust="spacing" textLength="83.3779" x="413.5" y="547.8545">SPECTATOR</text><text fill="#000000" font-family="sans-serif" font-size="14" lengthAdjust="spacing" textLength="55.501" x="413.5" y="564.1514">PARKER</text><text fill="#000000" font-family="sans-serif" font-size="14" lengthAdjust="spacing" textLength="80.2061" x="413.5" y="580.4482">GOURMETS</text></g><g id="elem_GMN21"><path d="M251.5,57.7969 L251.5,98.0625 A0,0 0 0 0 251.5,98.0625 L506.7666,98.0625 A0,0 0 0 0 506.7666,98.0625 L506.7666,81.7969 L541.38,77.7969 L506.7666,73.7969 L506.7666,67.7969 L496.7666,57.7969 L251.5,57.7969 A0,0 0 0 0 251.5,57.7969 " fill="#FEFFDD" style="stroke:#181818;stroke-width:0.5;"/><path d="M496.7666,57.7969 L496.7666,67.7969 L506.7666,67.7969 L496.7666,57.7969 " fill="#FEFFDD" style="stroke:#181818;stroke-width:0.5;"/><text fill="#000000" font-family="sans-serif" font-size="13" lengthAdjust="spacing" textLength="230.1343" x="257.5" y="74.8638">RN-1: Los nombres de las bodegas,</text><text fill="#000000" font-family="sans-serif" font-size="13" lengthAdjust="spacing" textLength="154.0957" x="257.5" y="89.9966">vinos y uvas son &#250;nicos</text></g><g id="elem_GMN24"><path d="M6,201.7969 L6,242.0625 A0,0 0 0 0 6,242.0625 L156.68,242.0625 L214.77,339.0669 L164.68,242.0625 L293.9507,242.0625 A0,0 0 0 0 293.9507,242.0625 L293.9507,211.7969 L283.9507,201.7969 L6,201.7969 A0,0 0 0 0 6,201.7969 " fill="#FEFFDD" style="stroke:#181818;stroke-width:0.5;"/><path d="M283.9507,201.7969 L283.9507,211.7969 L293.9507,211.7969 L283.9507,201.7969 " fill="#FEFFDD" style="stroke:#181818;stroke-width:0.5;"/><text fill="#000000" font-family="sans-serif" font-size="13" lengthAdjust="spacing" textLength="262.8184" x="12" y="218.8638">RN-2: 24 meses de crianza: entre 6 y 12</text><text fill="#000000" font-family="sans-serif" font-size="13" lengthAdjust="spacing" textLength="238.5068" x="12" y="233.9966">meses en barrica, el resto en botella</text></g><g id="elem_GMN27"><path d="M1027.5,209.2969 L1027.5,234.4297 A0,0 0 0 0 1027.5,234.4297 L1150,234.4297 L1154,339.1469 L1158,234.4297 L1280.1704,234.4297 A0,0 0 0 0 1280.1704,234.4297 L1280.1704,219.2969 L1270.1704,209.2969 L1027.5,209.2969 A0,0 0 0 0 1027.5,209.2969 " fill="#FEFFDD" style="stroke:#181818;stroke-width:0.5;"/><path d="M1270.1704,209.2969 L1270.1704,219.2969 L1280.1704,219.2969 L1270.1704,209.2969 " fill="#FEFFDD" style="stroke:#181818;stroke-width:0.5;"/><text fill="#000000" font-family="sans-serif" font-size="13" lengthAdjust="spacing" textLength="231.6704" x="1033.5" y="226.3638">RN-2: Menos de 6 meses en barrica</text></g><g id="elem_GMN30"><path d="M740.5,201.7969 L740.5,217.7969 L705.84,221.7969 L740.5,225.7969 L740.5,242.0625 A0,0 0 0 0 740.5,242.0625 L965.3232,242.0625 A0,0 0 0 0 965.3232,242.0625 L965.3232,211.7969 L955.3232,201.7969 L740.5,201.7969 A0,0 0 0 0 740.5,201.7969 " fill="#FEFFDD" style="stroke:#181818;stroke-width:0.5;"/><path d="M955.3232,201.7969 L955.3232,211.7969 L965.3232,211.7969 L955.3232,201.7969 " fill="#FEFFDD" style="stroke:#181818;stroke-width:0.5;"/><text fill="#000000" font-family="sans-serif" font-size="13" lengthAdjust="spacing" textLength="199.6909" x="746.5" y="218.8638">RN-3: la graduaci&#243;n est&#225; entre</text><text fill="#000000" font-family="sans-serif" font-size="13" lengthAdjust="spacing" textLength="120.1865" x="746.5" y="233.9966">los 10 y 15 grados</text></g><g id="elem_GMN33"><path d="M106.5,648.2969 L106.5,688.5625 A0,0 0 0 0 106.5,688.5625 L359.8115,688.5625 A0,0 0 0 0 359.8115,688.5625 L359.8115,658.2969 L349.8115,648.2969 L237,648.2969 L233,564.5969 L229,648.2969 L106.5,648.2969 A0,0 0 0 0 106.5,648.2969 " fill="#FEFFDD" style="stroke:#181818;stroke-width:0.5;"/><path d="M349.8115,648.2969 L349.8115,658.2969 L359.8115,658.2969 L349.8115,648.2969 " fill="#FEFFDD" style="stroke:#181818;stroke-width:0.5;"/><text fill="#000000" font-family="sans-serif" font-size="13" lengthAdjust="spacing" textLength="213.8145" x="112.5" y="665.3638">RN-4: Cada vino de crianza tiene</text><text fill="#000000" font-family="sans-serif" font-size="13" lengthAdjust="spacing" textLength="232.3115" x="112.5" y="680.4966">como m&#225;ximo una cosecha por a&#241;o</text></g><g id="elem_GMN36"><path d="M738,352.7969 L738,368.7969 L703.06,372.7969 L738,376.7969 L738,393.0625 A0,0 0 0 0 738,393.0625 L1034.2217,393.0625 A0,0 0 0 0 1034.2217,393.0625 L1034.2217,362.7969 L1024.2217,352.7969 L738,352.7969 A0,0 0 0 0 738,352.7969 " fill="#FFDD99" style="stroke:#181818;stroke-width:0.5;"/><path d="M1024.2217,352.7969 L1024.2217,362.7969 L1034.2217,362.7969 L1024.2217,352.7969 " fill="#FFDD99" style="stroke:#181818;stroke-width:0.5;"/><text fill="#000000" font-family="sans-serif" font-size="13" lengthAdjust="spacing" textLength="271.0894" x="744" y="369.8638">RN-5: 36 meses de crianza: entre 12 y 24</text><text fill="#000000" font-family="sans-serif" font-size="13" lengthAdjust="spacing" textLength="238.5068" x="744" y="384.9966">meses en barrica, el resto en botella</text></g><g id="elem_GMN39"><path d="M733.5,510.7969 L733.5,526.7969 L698.81,530.7969 L733.5,534.7969 L733.5,551.0625 A0,0 0 0 0 733.5,551.0625 L1146.4995,551.0625 A0,0 0 0 0 1146.4995,551.0625 L1146.4995,520.7969 L1136.4995,510.7969 L733.5,510.7969 A0,0 0 0 0 733.5,510.7969 " fill="#FFDD99" style="stroke:#181818;stroke-width:0.5;"/><path d="M1136.4995,510.7969 L1136.4995,520.7969 L1146.4995,520.7969 L1136.4995,510.7969 " fill="#FFDD99" style="stroke:#181818;stroke-width:0.5;"/><text fill="#000000" font-family="sans-serif" font-size="13" lengthAdjust="spacing" textLength="260.6411" x="739.5" y="527.8638">RN-6: La puntuaci&#243;n est&#225; entre 0 y 100.</text><text fill="#000000" font-family="sans-serif" font-size="13" lengthAdjust="spacing" textLength="391.9995" x="739.5" y="542.9966">Un vino no puede tener dos valoraciones del mismo ranking</text></g><!--link Bodega to Vino--><g id="link_Bodega_Vino"><path codeLine="68" d="M646,111.3769 C646,134.2969 646,164.8769 646,187.8769 " fill="none" id="Bodega-Vino" style="stroke:#181818;stroke-width:1.0;"/><polygon fill="#000000" points="651,154.8633,653.9389,145.8182,648.0611,145.8182,651,154.8633" style="stroke:#000000;stroke-width:1.0;"/><text fill="#000000" font-family="sans-serif" font-size="13" lengthAdjust="spacing" textLength="53.187" x="660" y="154.3638">produce</text><text fill="#000000" font-family="sans-serif" font-size="13" lengthAdjust="spacing" textLength="8.271" x="637.27" y="131.2977">1</text><text fill="#000000" font-family="sans-serif" font-size="13" lengthAdjust="spacing" textLength="23.0356" x="620.9067" y="177.3293">1..*</text></g><!--reverse link Vino to Joven--><g id="link_Vino_Joven"><path codeLine="69" d="M722.5626,255.5699 C728.3426,257.7699 717.34,253.4569 723,255.2969 C865.8,301.7769 908.52,287.9669 1052,332.2969 C1058.89,334.4269 1065.99,336.7969 1073.07,339.2869 " fill="none" id="Vino-backto-Joven" style="stroke:#181818;stroke-width:1.0;"/><polygon fill="none" points="705.74,249.1669,720.4283,261.1775,724.697,249.9624,705.74,249.1669" style="stroke:#181818;stroke-width:1.0;"/></g><!--reverse link Vino to Crianza--><g id="link_Vino_Crianza"><path codeLine="70" d="M569.4576,250.4139 C498.9776,275.8339 398.1,312.2269 318.06,341.1069 " fill="none" id="Vino-backto-Crianza" style="stroke:#181818;stroke-width:1.0;"/><polygon fill="none" points="586.39,244.3069,567.422,244.7697,571.4933,256.058,586.39,244.3069" style="stroke:#181818;stroke-width:1.0;"/></g><!--reverse link Vino to Reserva--><g id="link_Vino_Reserva"><path codeLine="71" d="M636.5348,273.1871 C632.2848,295.7971 629.93,308.3269 625.42,332.2869 " fill="none" id="Vino-backto-Reserva" style="stroke:#181818;stroke-width:1.0;"/><polygon fill="none" points="639.86,255.4969,630.638,272.0787,642.4315,274.2955,639.86,255.4969" style="stroke:#181818;stroke-width:1.0;"/><text fill="#000000" font-family="sans-serif" font-size="13" lengthAdjust="spacing" textLength="133.1548" x="634" y="298.3638">{completa,disjunta}</text></g><!--reverse link Crianza to Cosecha--><g id="link_Crianza_Cosecha"><path codeLine="72" d="M233,418.4969 C233,445.1269 233,470.5269 233,497.1369 " fill="none" id="Crianza-backto-Cosecha" style="stroke:#181818;stroke-width:1.0;"/><polygon fill="#181818" points="233,406.4969,229,412.4969,233,418.4969,237,412.4969,233,406.4969" style="stroke:#181818;stroke-width:1.0;"/><text fill="#000000" font-family="sans-serif" font-size="13" lengthAdjust="spacing" textLength="23.0356" x="207.7044" y="486.1242">1..*</text></g><!--reverse link Reserva to Valoraci?n--><g id="link_Reserva_Valoraci&#243;n"><path codeLine="73" d="M618,425.5669 C618,449.0369 618,466.6469 618,490.0969 " fill="none" id="Reserva-backto-Valoraci&#243;n" style="stroke:#181818;stroke-width:1.0;"/><polygon fill="#181818" points="618,413.5669,614,419.5669,618,425.5669,622,419.5669,618,413.5669" style="stroke:#181818;stroke-width:1.0;"/><text fill="#000000" font-family="sans-serif" font-size="13" lengthAdjust="spacing" textLength="23.0356" x="593.1014" y="479.2033">0..*</text></g><!--link Uva to Vino--><g id="link_Uva_Vino"><path codeLine="74" d="M446.54,221.7969 C488.32,221.7969 544.32,221.7969 586.35,221.7969 " fill="none" id="Uva-Vino" style="stroke:#181818;stroke-width:1.0;"/><polygon fill="#000000" points="464,210.3633,473.0451,213.3022,473.0451,207.4244,464,210.3633" style="stroke:#000000;stroke-width:1.0;"/><text fill="#000000" font-family="sans-serif" font-size="13" lengthAdjust="spacing" textLength="90.0859" x="478" y="214.8638">compuestoDe</text><text fill="#000000" font-family="sans-serif" font-size="13" lengthAdjust="spacing" textLength="23.0356" x="454.6242" y="234.7621">1..*</text><text fill="#000000" font-family="sans-serif" font-size="13" lengthAdjust="spacing" textLength="23.0356" x="555.584" y="234.6973">0..*</text></g><!--link TipoRanking to Valoraci?n--><!--SRC=[hLNDJjj04Bxp5DFqK0abQSAVX1KXGGXLImae1AIgwc5Z3sRBUjVQNQUab4VeeO_08rIzzUeNwtZNs2OAxQLI56TtVhwPRxvn000ijmAXTQ0YZ9a986H6GQWauAr5QRYIQ21bcj45Ir2srYW8tDSrZn12haE1zHcJr2uWmMI6sgov-nTSXY8hV0KpQBeyIuGpL9aAWu496jHp1eF1ECEvsjkxgxmifxpgW6dDGnR0MsanHhriLXQ5M3BVDm0kcL2QXJp_9LU1Q2Plk8m3cF9KJVoXCgQPj9cFNGM0CakQSR0Au6oK_yY_Zwlp-TbeEDsVdavgZ_t9yQW-lZczc9oCfkSba7iCZ5q8t7E_kmu2QeG35jx4McKo6Yhg5JuG8UfBeyx1wpBSdVpKeTLlGQT3ZsvtlGMNN2e88DKgoa84Z-Gk1z_82zwfESgbow7cJ7vbIxVbG0DetOKgIGLQrewu-KnKidilf38GrclyeJ8ONljSZv9mvfulhnvY3LVQEgBASa5Hf6Q2pT1OTLWrqj10H-2L_KYoZL1-wZmP-wlzM1CrYJ8WbMK6c824s1BAPHcJrA281dLLibZDO3Bkz0DuxoAJcQRr8UcJ_c3cTwmDbUkSQZUmW6nEPaDBb_-MF5J6EOnav71gGAlI0gz9TWcu4S365csTyMYXzmX8bbOZx114VwE6zNueOUONgWqeG1SqkKk_Hd-leHP1NS495jr41TuomZF9D8-l7ON549lPDWDY36BDedBdWAhB7yf-Aaz1UFrUqTssStwMEUh9giIHvzK5JRIj08OiOcuS3VgAruh4of6qf2397suvFJF9wCAdIcdHMFvJ_Ql9Hp6_F3ewFDpTRLQm7S3cphFpezajYld-bm7Md3SsOKL9EwHXrdpjFHc18xtNwzOrNKZF7trevQW9-lj03JGJc9T8xh-4TWWIReX3tNZ5FjRv1m00]--></g></svg>