<svg xmlns="http://www.w3.org/2000/svg" xmlns:xlink="http://www.w3.org/1999/xlink" contentStyleType="text/css" height="534px" preserveAspectRatio="none" style="width:912px;height:534px;background:#FFFFFF;" version="1.1" viewBox="0 0 912 534" width="912px" zoomAndPan="magnify"><title>Bodegas: caso base</title><defs/><g><text fill="#000000" font-family="sans-serif" font-size="14" font-weight="bold" lengthAdjust="spacing" textLength="155.9482" x="371.1875" y="22.9951">Bodegas: caso base</text><!--class Bodega--><g id="elem_Bodega"><rect codeLine="0" fill="#F1F1F1" height="66.8906" id="Bodega" rx="2.5" ry="2.5" style="stroke:#181818;stroke-width:0.5;" width="208.9297" x="481.5" y="44.2969"/><text fill="#000000" font-family="sans-serif" font-size="14" lengthAdjust="spacing" textLength="53.1357" x="559.397" y="62.292">Bodega</text><line style="stroke:#181818;stroke-width:0.5;" x1="482.5" x2="689.4297" y1="70.5938" y2="70.5938"/><text fill="#000000" font-family="sans-serif" font-size="14" lengthAdjust="spacing" textLength="105.2803" x="487.5" y="87.5889">nombre: String</text><text fill="#000000" font-family="sans-serif" font-size="14" lengthAdjust="spacing" textLength="196.9297" x="487.5" y="103.8857">denominaci&#243;nOrigen: String</text></g><!--class Vino--><g id="elem_Vino"><rect codeLine="5" fill="#F1F1F1" height="66.8906" id="Vino" rx="2.5" ry="2.5" style="stroke:#181818;stroke-width:0.5;" width="118.7432" x="526.5" y="188.2969"/><text fill="#000000" font-family="sans-serif" font-size="14" lengthAdjust="spacing" textLength="30.9053" x="570.4189" y="206.292">Vino</text><line style="stroke:#181818;stroke-width:0.5;" x1="527.5" x2="644.2432" y1="214.5938" y2="214.5938"/><text fill="#000000" font-family="sans-serif" font-size="14" lengthAdjust="spacing" textLength="105.2803" x="532.5" y="231.5889">nombre: String</text><text fill="#000000" font-family="sans-serif" font-size="14" lengthAdjust="spacing" textLength="106.7432" x="532.5" y="247.8857">grados: Double</text></g><!--class Crianza--><g id="elem_Crianza"><rect codeLine="11" fill="#F1F1F1" height="66.8906" id="Crianza" rx="2.5" ry="2.5" style="stroke:#181818;stroke-width:0.5;" width="170.4707" x="501" y="332.2969"/><text fill="#000000" font-family="sans-serif" font-size="14" lengthAdjust="spacing" textLength="52.8008" x="559.835" y="350.292">Crianza</text><line style="stroke:#181818;stroke-width:0.5;" x1="502" x2="670.4707" y1="358.5938" y2="358.5938"/><text fill="#000000" font-family="sans-serif" font-size="14" lengthAdjust="spacing" textLength="158.4707" x="507" y="375.5889">tiempoBarrica: Integer</text><text fill="#000000" font-family="sans-serif" font-size="14" lengthAdjust="spacing" textLength="157.2402" x="507" y="391.8857">tiempoBotella: Integer</text></g><!--class Joven--><g id="elem_Joven"><rect codeLine="15" fill="#F1F1F1" height="66.8906" id="Joven" rx="2.5" ry="2.5" style="stroke:#181818;stroke-width:0.5;" width="170.4707" x="7" y="332.2969"/><text fill="#000000" font-family="sans-serif" font-size="14" lengthAdjust="spacing" textLength="38.4658" x="73.0024" y="350.292">Joven</text><line style="stroke:#181818;stroke-width:0.5;" x1="8" x2="176.4707" y1="358.5938" y2="358.5938"/><text fill="#000000" font-family="sans-serif" font-size="14" lengthAdjust="spacing" textLength="158.4707" x="13" y="375.5889">tiempoBarrica: Integer</text><text fill="#000000" font-family="sans-serif" font-size="14" lengthAdjust="spacing" textLength="157.2402" x="13" y="391.8857">tiempoBotella: Integer</text></g><!--class Uva--><g id="elem_Uva"><rect codeLine="19" fill="#F1F1F1" height="50.5938" id="Uva" rx="2.5" ry="2.5" style="stroke:#181818;stroke-width:0.5;" width="117.2803" x="706.5" y="340.2969"/><text fill="#000000" font-family="sans-serif" font-size="14" lengthAdjust="spacing" textLength="27.1113" x="751.5845" y="358.292">Uva</text><line style="stroke:#181818;stroke-width:0.5;" x1="707.5" x2="822.7803" y1="366.5938" y2="366.5938"/><text fill="#000000" font-family="sans-serif" font-size="14" lengthAdjust="spacing" textLength="105.2803" x="712.5" y="383.5889">nombre: String</text></g><!--class Cosecha--><g id="elem_Cosecha"><rect codeLine="22" fill="#F1F1F1" height="66.8906" id="Cosecha" rx="2.5" ry="2.5" style="stroke:#181818;stroke-width:0.5;" width="113.3564" x="144.5" y="460.2969"/><text fill="#000000" font-family="sans-serif" font-size="14" lengthAdjust="spacing" textLength="59.3975" x="171.4795" y="478.292">Cosecha</text><line style="stroke:#181818;stroke-width:0.5;" x1="145.5" x2="256.8564" y1="486.5938" y2="486.5938"/><text fill="#000000" font-family="sans-serif" font-size="14" lengthAdjust="spacing" textLength="66.6846" x="150.5" y="503.5889">a&#241;o: Year</text><text fill="#000000" font-family="sans-serif" font-size="14" lengthAdjust="spacing" textLength="101.3564" x="150.5" y="519.8857">calidad: String</text></g><g id="elem_GMN13"><path d="M191.5,57.7969 L191.5,98.0625 A0,0 0 0 0 191.5,98.0625 L446.7666,98.0625 A0,0 0 0 0 446.7666,98.0625 L446.7666,81.7969 L481.38,77.7969 L446.7666,73.7969 L446.7666,67.7969 L436.7666,57.7969 L191.5,57.7969 A0,0 0 0 0 191.5,57.7969 " fill="#FEFFDD" style="stroke:#181818;stroke-width:0.5;"/><path d="M436.7666,57.7969 L436.7666,67.7969 L446.7666,67.7969 L436.7666,57.7969 " fill="#FEFFDD" style="stroke:#181818;stroke-width:0.5;"/><text fill="#000000" font-family="sans-serif" font-size="13" lengthAdjust="spacing" textLength="230.1343" x="197.5" y="74.8638">RN-1: Los nombres de las bodegas,</text><text fill="#000000" font-family="sans-serif" font-size="13" lengthAdjust="spacing" textLength="154.0957" x="197.5" y="89.9966">vinos y uvas son &#250;nicos</text></g><g id="elem_GMN16"><path d="M580.5,473.7969 L580.5,514.0625 A0,0 0 0 0 580.5,514.0625 L875.979,514.0625 A0,0 0 0 0 875.979,514.0625 L875.979,483.7969 L865.979,473.7969 L710.27,473.7969 L622.94,399.5769 L702.27,473.7969 L580.5,473.7969 A0,0 0 0 0 580.5,473.7969 " fill="#FEFFDD" style="stroke:#181818;stroke-width:0.5;"/><path d="M865.979,473.7969 L865.979,483.7969 L875.979,483.7969 L865.979,473.7969 " fill="#FEFFDD" style="stroke:#181818;stroke-width:0.5;"/><text fill="#000000" font-family="sans-serif" font-size="13" lengthAdjust="spacing" textLength="270.3467" x="586.5" y="490.8638">RN-2: 24 meses de crianza: 6 y 12 meses</text><text fill="#000000" font-family="sans-serif" font-size="13" lengthAdjust="spacing" textLength="199.8623" x="586.5" y="505.9966">en barrica y el resto en botella</text></g><g id="elem_GMN19"><path d="M680.5,201.7969 L680.5,217.7969 L645.84,221.7969 L680.5,225.7969 L680.5,242.0625 A0,0 0 0 0 680.5,242.0625 L905.3232,242.0625 A0,0 0 0 0 905.3232,242.0625 L905.3232,211.7969 L895.3232,201.7969 L680.5,201.7969 A0,0 0 0 0 680.5,201.7969 " fill="#FEFFDD" style="stroke:#181818;stroke-width:0.5;"/><path d="M895.3232,201.7969 L895.3232,211.7969 L905.3232,211.7969 L895.3232,201.7969 " fill="#FEFFDD" style="stroke:#181818;stroke-width:0.5;"/><text fill="#000000" font-family="sans-serif" font-size="13" lengthAdjust="spacing" textLength="199.6909" x="686.5" y="218.8638">RN-3: la graduaci&#243;n est&#225; entre</text><text fill="#000000" font-family="sans-serif" font-size="13" lengthAdjust="spacing" textLength="120.1865" x="686.5" y="233.9966">los 10 y 15 grados</text></g><g id="elem_GMN22"><path d="M292.5,473.7969 L292.5,489.7969 L257.63,493.7969 L292.5,497.7969 L292.5,514.0625 A0,0 0 0 0 292.5,514.0625 L545.8115,514.0625 A0,0 0 0 0 545.8115,514.0625 L545.8115,483.7969 L535.8115,473.7969 L292.5,473.7969 A0,0 0 0 0 292.5,473.7969 " fill="#FEFFDD" style="stroke:#181818;stroke-width:0.5;"/><path d="M535.8115,473.7969 L535.8115,483.7969 L545.8115,483.7969 L535.8115,473.7969 " fill="#FEFFDD" style="stroke:#181818;stroke-width:0.5;"/><text fill="#000000" font-family="sans-serif" font-size="13" lengthAdjust="spacing" textLength="213.8145" x="298.5" y="490.8638">RN-4: Cada vino de crianza tiene</text><text fill="#000000" font-family="sans-serif" font-size="13" lengthAdjust="spacing" textLength="232.3115" x="298.5" y="505.9966">como m&#225;ximo una cosecha por a&#241;o</text></g><g id="elem_GMN25"><path d="M212.5,353.2969 L212.5,361.7969 L177.39,365.7969 L212.5,369.7969 L212.5,378.4297 A0,0 0 0 0 212.5,378.4297 L465.1704,378.4297 A0,0 0 0 0 465.1704,378.4297 L465.1704,363.2969 L455.1704,353.2969 L212.5,353.2969 A0,0 0 0 0 212.5,353.2969 " fill="#FEFFDD" style="stroke:#181818;stroke-width:0.5;"/><path d="M455.1704,353.2969 L455.1704,363.2969 L465.1704,363.2969 L455.1704,353.2969 " fill="#FEFFDD" style="stroke:#181818;stroke-width:0.5;"/><text fill="#000000" font-family="sans-serif" font-size="13" lengthAdjust="spacing" textLength="231.6704" x="218.5" y="370.3638">RN-2: Menos de 6 meses en barrica</text></g><!--link Bodega to Vino--><g id="link_Bodega_Vino"><path codeLine="9" d="M586,111.3769 C586,134.2969 586,164.8769 586,187.8769 " fill="none" id="Bodega-Vino" style="stroke:#181818;stroke-width:1.0;"/><polygon fill="#000000" points="591,154.8633,593.9389,145.8182,588.0611,145.8182,591,154.8633" style="stroke:#000000;stroke-width:1.0;"/><text fill="#000000" font-family="sans-serif" font-size="13" lengthAdjust="spacing" textLength="53.187" x="600" y="154.3638">produce</text><text fill="#000000" font-family="sans-serif" font-size="13" lengthAdjust="spacing" textLength="8.271" x="577.27" y="131.2977">1</text><text fill="#000000" font-family="sans-serif" font-size="13" lengthAdjust="spacing" textLength="23.0356" x="560.9067" y="177.3293">1..*</text></g><!--reverse link Vino to Joven--><g id="link_Vino_Joven"><path codeLine="10" d="M508.8373,243.5974 C431.9773,264.4374 311.88,297.4969 195,332.2969 C189.16,334.0369 183.14,335.8569 177.09,337.7069 " fill="none" id="Vino-backto-Joven" style="stroke:#181818;stroke-width:1.0;"/><polygon fill="none" points="526.21,238.8869,507.2671,237.8064,510.4074,249.3883,526.21,238.8869" style="stroke:#181818;stroke-width:1.0;"/><text fill="#000000" font-family="sans-serif" font-size="13" lengthAdjust="spacing" textLength="133.1548" x="357" y="298.3638">{completa,disjunta}</text></g><!--reverse link Vino to Crianza--><g id="link_Vino_Crianza"><path codeLine="11" d="M586,273.3769 C586,296.2969 586,308.8769 586,331.8769 " fill="none" id="Vino-backto-Crianza" style="stroke:#181818;stroke-width:1.0;"/><polygon fill="none" points="586,255.3769,580,273.3769,592,273.3769,586,255.3769" style="stroke:#181818;stroke-width:1.0;"/></g><!--reverse link Crianza to Cosecha--><g id="link_Crianza_Cosecha"><path codeLine="12" d="M489.4305,397.3578 C483.3805,399.2378 488.83,397.5269 483,399.2969 C390.84,427.3469 365.51,427.3069 275,460.2969 C269.33,462.3669 263.48,464.6569 257.66,467.0269 " fill="none" id="Crianza-backto-Cosecha" style="stroke:#181818;stroke-width:1.0;"/><polygon fill="#181818" points="500.89,393.7969,493.9733,391.7575,489.4305,397.3578,496.3472,399.3972,500.89,393.7969" style="stroke:#181818;stroke-width:1.0;"/><text fill="#000000" font-family="sans-serif" font-size="13" lengthAdjust="spacing" textLength="23.0356" x="265.9475" y="459.9319">1..*</text></g><!--link Vino to Uva--><g id="link_Vino_Uva"><path codeLine="13" d="M627.07,255.3769 C659.58,281.1669 704.3,316.6369 733.89,340.1169 " fill="none" id="Vino-Uva" style="stroke:#181818;stroke-width:1.0;"/><polygon fill="#000000" points="689.9171,296.9707,684.6575,289.0469,681.0045,293.6517,689.9171,296.9707" style="stroke:#000000;stroke-width:1.0;"/><text fill="#000000" font-family="sans-serif" font-size="13" lengthAdjust="spacing" textLength="90.5684" x="695" y="298.3638">elaboradoCon</text><text fill="#000000" font-family="sans-serif" font-size="13" lengthAdjust="spacing" textLength="23.0356" x="609.7347" y="275.2977">0..*</text><text fill="#000000" font-family="sans-serif" font-size="13" lengthAdjust="spacing" textLength="23.0356" x="700.474" y="329.1618">1..*</text></g><!--SRC=[XL9DRzH03BttLpnoGQgwg-vIUeYgIh3YWg27Id1t9kxkeCbuDJDPKJv-J7y2uiOrVmndaYPBfOfJ9lQpdz-p0I3Pv1Z5MwbvIx64eIYeA79nebdiRCqmDXZ7ypyt-tIFXfkAGpp9yPSRfpKnlrzORrpRr-NOqhQDoua1-IQAiMIi-14_SADO5LWizBDSdXRuRBsWn3v8tHh6TKRcuDKFHU6z7DYNABuRQVQE4vtLDdvfVQAVnHFi9bZotoX7npTEPwQDH3OxcekAynoV4PyEfAEmeqe2rR8Hh_Da_AEcMuuc1MlC9Ef64iFnNOBSZGh72k3sPh4gyK4Yl3HLu0WrIxr2DMpX31Fqe0D5tACzQ3egSVV7MoC3npjVPvwPi9AKfEafZqMFdEiIwmjTMnm8pO0eSQdzL-inCHMmrpC8geaqpGuwPf8SLIBdw9a9WjtkikRUocFsLwLAn5ODR7NvtMyFRTWzQCSKUAPrAdTrta_qEeEVbJeHZVl3CTb5YGtLbEqxqghNpfude9wEeEaUlbhzjfuqCBJQIm1rl-H_rFa8drZyaVkDAUVbwEXiv3_j_W80]--></g></svg>