<svg xmlns="http://www.w3.org/2000/svg" xmlns:xlink="http://www.w3.org/1999/xlink" contentStyleType="text/css" height="311px" preserveAspectRatio="none" style="width:785px;height:311px;background:#FFFFFF;" version="1.1" viewBox="0 0 785 311" width="785px" zoomAndPan="magnify"><title>Empleados: diagrama de clases</title><defs/><g><text fill="#000000" font-family="sans-serif" font-size="14" font-weight="bold" lengthAdjust="spacing" textLength="249.0059" x="261.1726" y="22.9951">Empleados: diagrama de clases</text><!--class Departamento--><g id="elem_Departamento"><rect codeLine="4" fill="#F1F1F1" height="66.8906" id="Departamento" rx="2.5" ry="2.5" style="stroke:#181818;stroke-width:0.5;" width="125.8115" x="531.5" y="237.2969"/><text fill="#000000" font-family="sans-serif" font-size="14" lengthAdjust="spacing" textLength="101.8623" x="543.4746" y="255.292">Departamento</text><line style="stroke:#181818;stroke-width:0.5;" x1="532.5" x2="656.3115" y1="263.5938" y2="263.5938"/><text fill="#000000" font-family="sans-serif" font-size="14" lengthAdjust="spacing" textLength="105.2803" x="537.5" y="280.5889">nombre: String</text><text fill="#000000" font-family="sans-serif" font-size="14" lengthAdjust="spacing" textLength="113.8115" x="537.5" y="296.8857">localidad: String</text></g><!--class Empleado--><g id="elem_Empleado"><rect codeLine="8" fill="#F1F1F1" height="115.7813" id="Empleado" rx="2.5" ry="2.5" style="stroke:#181818;stroke-width:0.5;" width="133.1875" x="528" y="44.2969"/><text fill="#000000" font-family="sans-serif" font-size="14" lengthAdjust="spacing" textLength="69.9043" x="559.6416" y="62.292">Empleado</text><line style="stroke:#181818;stroke-width:0.5;" x1="529" x2="660.1875" y1="70.5938" y2="70.5938"/><text fill="#000000" font-family="sans-serif" font-size="14" lengthAdjust="spacing" textLength="105.2803" x="534" y="87.5889">nombre: String</text><text fill="#000000" font-family="sans-serif" font-size="14" lengthAdjust="spacing" textLength="118.3643" x="534" y="103.8857">fechaInicio: Date</text><text fill="#000000" font-family="sans-serif" font-size="14" lengthAdjust="spacing" textLength="102.1357" x="534" y="120.1826">fechaFin: Date</text><text fill="#000000" font-family="sans-serif" font-size="14" lengthAdjust="spacing" textLength="105.3281" x="534" y="136.4795">salario: Double</text><text fill="#000000" font-family="sans-serif" font-size="14" lengthAdjust="spacing" textLength="121.1875" x="534" y="152.7764">comisi&#243;n: Double</text></g><g id="elem_GMN6"><path d="M103,250.7969 L103,291.0625 A0,0 0 0 0 103,291.0625 L495.7441,291.0625 A0,0 0 0 0 495.7441,291.0625 L495.7441,274.7969 L531.18,270.7969 L495.7441,266.7969 L495.7441,260.7969 L485.7441,250.7969 L103,250.7969 A0,0 0 0 0 103,250.7969 " fill="#FEFFDD" style="stroke:#181818;stroke-width:0.5;"/><path d="M485.7441,250.7969 L485.7441,260.7969 L495.7441,260.7969 L485.7441,250.7969 " fill="#FEFFDD" style="stroke:#181818;stroke-width:0.5;"/><text fill="#000000" font-family="sans-serif" font-size="13" lengthAdjust="spacing" textLength="371.7441" x="109" y="267.8638">- La combinaci&#243;n nombre y localidad no se puede repetir</text><text fill="#000000" font-family="sans-serif" font-size="13" lengthAdjust="spacing" textLength="367.4658" x="109" y="282.9966">- Un departamento no puede tener m&#225;s de 5 empleados</text></g><g id="elem_GMN9"><path d="M6,66.7969 L6,137.3281 A0,0 0 0 0 6,137.3281 L493.4258,137.3281 A0,0 0 0 0 493.4258,137.3281 L493.4258,106.2969 L527.95,102.2969 L493.4258,98.2969 L493.4258,76.7969 L483.4258,66.7969 L6,66.7969 A0,0 0 0 0 6,66.7969 " fill="#FEFFDD" style="stroke:#181818;stroke-width:0.5;"/><path d="M483.4258,66.7969 L483.4258,76.7969 L493.4258,76.7969 L483.4258,66.7969 " fill="#FEFFDD" style="stroke:#181818;stroke-width:0.5;"/><text fill="#000000" font-family="sans-serif" font-size="13" lengthAdjust="spacing" textLength="277.8115" x="12" y="83.8638">- Un empleado no puede ser su propio jefe</text><text fill="#000000" font-family="sans-serif" font-size="13" lengthAdjust="spacing" textLength="362.7114" x="12" y="98.9966">- La comisi&#243;n es un porcentaje del salario entre 0 y 100</text><text fill="#000000" font-family="sans-serif" font-size="13" lengthAdjust="spacing" textLength="283.7974" x="12" y="114.1294">- Los nombres de los empleados son &#250;nicos</text><text fill="#000000" font-family="sans-serif" font-size="13" lengthAdjust="spacing" textLength="466.4258" x="12" y="129.2622">- La fecha de inicio del contrato no puede ser posterior a la fecha de fin</text></g><!--link Empleado to Departamento--><g id="link_Empleado_Departamento"><path codeLine="16" d="M594.5,160.5969 C594.5,186.1869 594.5,215.4069 594.5,237.1769 " fill="none" id="Empleado-Departamento" style="stroke:#181818;stroke-width:1.0;"/><polygon fill="#000000" points="599.5,203.8633,602.4389,194.8182,596.5611,194.8182,599.5,203.8633" style="stroke:#000000;stroke-width:1.0;"/><text fill="#000000" font-family="sans-serif" font-size="13" lengthAdjust="spacing" textLength="62.6577" x="608.5" y="203.3638">trabajaEn</text><text fill="#000000" font-family="sans-serif" font-size="13" lengthAdjust="spacing" textLength="8.271" x="586.0423" y="180.2922">1</text><text fill="#000000" font-family="sans-serif" font-size="13" lengthAdjust="spacing" textLength="23.0356" x="569.258" y="226.1721">0..*</text></g><!--link Empleado to Empleado--><g id="link_Empleado_Empleado"><path codeLine="17" d="M661.37,84.3469 C680.88,84.9669 696,90.9569 696,102.2969 C696,113.6369 680.88,119.6269 661.37,120.2469 " fill="none" id="Empleado-Empleado" style="stroke:#181818;stroke-width:1.0;"/><polygon fill="#000000" points="701.1588,107.3608,703.809,98.2269,697.9341,98.4136,701.1588,107.3608" style="stroke:#000000;stroke-width:1.0;"/><text fill="#000000" font-family="sans-serif" font-size="13" lengthAdjust="spacing" textLength="57.3511" x="715" y="106.8638">tieneJefe</text><text fill="#000000" font-family="sans-serif" font-size="13" lengthAdjust="spacing" textLength="53.3457" x="669.1088" y="79.3207">Jefe 0..1</text><text fill="#000000" font-family="sans-serif" font-size="13" lengthAdjust="spacing" textLength="92.9487" x="669.3329" y="134.1156">Subordinado *</text></g><!--SRC=[XLAxZjim4Epp5GCr0GBuu2lIk3WWm5s0146QGpvWHQryD4YkG5B58SZ7v1lIfVMFPKbPikGhmexxc9tP7G38DZj6y-G7nzH9Eg2pT8pa2Ht3E4gScdTQY1TR0ZOQnzS_-o6_mhDlEQOQBYq9ZpnGpEGvPC7FcYWlY6yZ7_2Semt79Up4aBCTTPlChnNUpE__M3sR5_eIhB5om2DbtcO-st0JJkGerc8PMtUD6_4ssVEViCbCfDv_Ic8iwOp0a-o5O7FVOBT3ix-x-z1izd10ZjJIYPu27cwQldBFq9PBy_FOIkniA3b5cUiKmNBWMlnm8NACV2GlIVUHAO4Sl7JifAQ_IsOuxZEatt1PLExmZOhKLeUPelQoLxnUhw8X9COmibuyyi3PnXN0Zw1MMPrRgwVIh5mZ_FbtAbxwMCmocMmI7xhAxotHMUvsnjnznK-AdaOCKGOhEEbMtiYQBWXE60C6YKOPqecLZviF3msfthqglj_lrmXrgMKPbR_Jxw80IGBEVzLc5pNBqEgoKc-h1-ia8pg2yWtrGL9c9H11SAl6teRDWlu1]--></g></svg>