<svg xmlns="http://www.w3.org/2000/svg" xmlns:xlink="http://www.w3.org/1999/xlink" contentStyleType="text/css" height="1045px" preserveAspectRatio="none" style="width:941px;height:1045px;background:#FFFFFF;" version="1.1" viewBox="0 0 941 1045" width="941px" zoomAndPan="magnify"><defs/><g><!--class Especie--><g id="elem_Especie"><rect codeLine="1" fill="#F1F1F1" height="64.2969" id="Especie" rx="2.5" ry="2.5" style="stroke:#181818;stroke-width:0.5;" width="110.5127" x="436" y="7"/><ellipse cx="462.1028" cy="23" fill="#ADD1B2" rx="11" ry="11" style="stroke:#181818;stroke-width:1.0;"/><path d="M465.0715,28.6406 Q464.4934,28.9375 463.8528,29.0781 Q463.2122,29.2344 462.509,29.2344 Q460.009,29.2344 458.6809,27.5938 Q457.3684,25.9375 457.3684,22.8125 Q457.3684,19.6875 458.6809,18.0313 Q460.009,16.375 462.509,16.375 Q463.2122,16.375 463.8528,16.5313 Q464.509,16.6875 465.0715,16.9844 L465.0715,19.7031 Q464.4465,19.125 463.8528,18.8594 Q463.259,18.5781 462.634,18.5781 Q461.2903,18.5781 460.6028,19.6563 Q459.9153,20.7188 459.9153,22.8125 Q459.9153,24.9063 460.6028,25.9844 Q461.2903,27.0469 462.634,27.0469 Q463.259,27.0469 463.8528,26.7813 Q464.4465,26.5 465.0715,25.9219 L465.0715,28.6406 Z " fill="#000000"/><text fill="#000000" font-family="sans-serif" font-size="14" lengthAdjust="spacing" textLength="53.8398" x="478.5701" y="27.8467">Especie</text><line style="stroke:#181818;stroke-width:0.5;" x1="437" x2="545.5127" y1="39" y2="39"/><text fill="#000000" font-family="sans-serif" font-size="14" lengthAdjust="spacing" textLength="98.5127" x="442" y="55.9951">especie:string</text><line style="stroke:#181818;stroke-width:0.5;" x1="437" x2="545.5127" y1="63.2969" y2="63.2969"/></g><!--class Raza--><g id="elem_Raza"><rect codeLine="4" fill="#F1F1F1" height="64.2969" id="Raza" rx="2.5" ry="2.5" style="stroke:#181818;stroke-width:0.5;" width="87.168" x="448" y="148"/><ellipse cx="472.4201" cy="164" fill="#ADD1B2" rx="11" ry="11" style="stroke:#181818;stroke-width:1.0;"/><path d="M475.3889,169.6406 Q474.8107,169.9375 474.1701,170.0781 Q473.5295,170.2344 472.8264,170.2344 Q470.3264,170.2344 468.9982,168.5938 Q467.6857,166.9375 467.6857,163.8125 Q467.6857,160.6875 468.9982,159.0313 Q470.3264,157.375 472.8264,157.375 Q473.5295,157.375 474.1701,157.5313 Q474.8264,157.6875 475.3889,157.9844 L475.3889,160.7031 Q474.7639,160.125 474.1701,159.8594 Q473.5764,159.5781 472.9514,159.5781 Q471.6076,159.5781 470.9201,160.6563 Q470.2326,161.7188 470.2326,163.8125 Q470.2326,165.9063 470.9201,166.9844 Q471.6076,168.0469 472.9514,168.0469 Q473.5764,168.0469 474.1701,167.7813 Q474.7639,167.5 475.3889,166.9219 L475.3889,169.6406 Z " fill="#000000"/><text fill="#000000" font-family="sans-serif" font-size="14" lengthAdjust="spacing" textLength="34.2344" x="488.5135" y="168.8467">Raza</text><line style="stroke:#181818;stroke-width:0.5;" x1="449" x2="534.168" y1="180" y2="180"/><text fill="#000000" font-family="sans-serif" font-size="14" lengthAdjust="spacing" textLength="75.168" x="454" y="196.9951">raza:string</text><line style="stroke:#181818;stroke-width:0.5;" x1="449" x2="534.168" y1="204.2969" y2="204.2969"/></g><!--class Animal--><g id="elem_Animal"><rect codeLine="7" fill="#F1F1F1" height="96.8906" id="Animal" rx="2.5" ry="2.5" style="stroke:#181818;stroke-width:0.5;" width="153.3262" x="415" y="289"/><ellipse cx="463.1899" cy="305" fill="#ADD1B2" rx="11" ry="11" style="stroke:#181818;stroke-width:1.0;"/><path d="M466.1587,310.6406 Q465.5806,310.9375 464.9399,311.0781 Q464.2993,311.2344 463.5962,311.2344 Q461.0962,311.2344 459.7681,309.5938 Q458.4556,307.9375 458.4556,304.8125 Q458.4556,301.6875 459.7681,300.0313 Q461.0962,298.375 463.5962,298.375 Q464.2993,298.375 464.9399,298.5313 Q465.5962,298.6875 466.1587,298.9844 L466.1587,301.7031 Q465.5337,301.125 464.9399,300.8594 Q464.3462,300.5781 463.7212,300.5781 Q462.3774,300.5781 461.6899,301.6563 Q461.0024,302.7188 461.0024,304.8125 Q461.0024,306.9063 461.6899,307.9844 Q462.3774,309.0469 463.7212,309.0469 Q464.3462,309.0469 464.9399,308.7813 Q465.5337,308.5 466.1587,307.9219 L466.1587,310.6406 Z " fill="#000000"/><text fill="#000000" font-family="sans-serif" font-size="14" lengthAdjust="spacing" textLength="48.4463" x="483.6899" y="309.8467">Animal</text><line style="stroke:#181818;stroke-width:0.5;" x1="416" x2="567.3262" y1="321" y2="321"/><text fill="#000000" font-family="sans-serif" font-size="14" lengthAdjust="spacing" textLength="116.3408" x="421" y="337.9951">chip:string [0..1]</text><text fill="#000000" font-family="sans-serif" font-size="14" lengthAdjust="spacing" textLength="141.3262" x="421" y="354.292">nombre:string [0..1]</text><text fill="#000000" font-family="sans-serif" font-size="14" lengthAdjust="spacing" textLength="124.9541" x="421" y="370.5889">descripci&#243;n:string</text><line style="stroke:#181818;stroke-width:0.5;" x1="416" x2="567.3262" y1="377.8906" y2="377.8906"/></g><!--class Ingreso--><g id="elem_Ingreso"><rect codeLine="12" fill="#F1F1F1" height="64.2969" id="Ingreso" rx="2.5" ry="2.5" style="stroke:#181818;stroke-width:0.5;" width="172.5215" x="405" y="650.5"/><ellipse cx="460.9521" cy="666.5" fill="#A9DCDF" rx="11" ry="11" style="stroke:#181818;stroke-width:1.0;"/><path d="M461.0615,661.8438 L459.9053,666.9219 L462.2334,666.9219 L461.0615,661.8438 Z M459.5771,659.6094 L462.5615,659.6094 L465.9209,672 L463.4678,672 L462.7021,668.9375 L459.4209,668.9375 L458.6709,672 L456.2334,672 L459.5771,659.6094 Z " fill="#000000"/><text fill="#000000" font-family="sans-serif" font-size="14" font-style="italic" lengthAdjust="spacing" textLength="52.1172" x="481.4521" y="671.3467">Ingreso</text><line style="stroke:#181818;stroke-width:0.5;" x1="406" x2="576.5215" y1="682.5" y2="682.5"/><text fill="#000000" font-family="sans-serif" font-size="14" lengthAdjust="spacing" textLength="160.5215" x="411" y="699.4951">fechaHoraIngreso:date</text><line style="stroke:#181818;stroke-width:0.5;" x1="406" x2="576.5215" y1="706.7969" y2="706.7969"/></g><!--class Abandono--><g id="elem_Abandono"><rect codeLine="15" fill="#F1F1F1" height="80.5938" id="Abandono" rx="2.5" ry="2.5" style="stroke:#181818;stroke-width:0.5;" width="191.2109" x="57" y="642"/><ellipse cx="112.9521" cy="658" fill="#ADD1B2" rx="11" ry="11" style="stroke:#181818;stroke-width:1.0;"/><path d="M115.9209,663.6406 Q115.3428,663.9375 114.7021,664.0781 Q114.0615,664.2344 113.3584,664.2344 Q110.8584,664.2344 109.5303,662.5938 Q108.2178,660.9375 108.2178,657.8125 Q108.2178,654.6875 109.5303,653.0313 Q110.8584,651.375 113.3584,651.375 Q114.0615,651.375 114.7021,651.5313 Q115.3584,651.6875 115.9209,651.9844 L115.9209,654.7031 Q115.2959,654.125 114.7021,653.8594 Q114.1084,653.5781 113.4834,653.5781 Q112.1396,653.5781 111.4521,654.6563 Q110.7646,655.7188 110.7646,657.8125 Q110.7646,659.9063 111.4521,660.9844 Q112.1396,662.0469 113.4834,662.0469 Q114.1084,662.0469 114.7021,661.7813 Q115.2959,661.5 115.9209,660.9219 L115.9209,663.6406 Z " fill="#000000"/><text fill="#000000" font-family="sans-serif" font-size="14" lengthAdjust="spacing" textLength="70.8066" x="133.4521" y="662.8467">Abandono</text><line style="stroke:#181818;stroke-width:0.5;" x1="58" x2="247.2109" y1="674" y2="674"/><text fill="#000000" font-family="sans-serif" font-size="14" lengthAdjust="spacing" textLength="179.2109" x="63" y="690.9951">fechaHoraAbandono:date</text><text fill="#000000" font-family="sans-serif" font-size="14" lengthAdjust="spacing" textLength="80.8896" x="63" y="707.292">lugar:string</text><line style="stroke:#181818;stroke-width:0.5;" x1="58" x2="247.2109" y1="714.5938" y2="714.5938"/></g><!--class Entrega--><g id="elem_Entrega"><rect codeLine="19" fill="#F1F1F1" height="48" id="Entrega" rx="2.5" ry="2.5" style="stroke:#181818;stroke-width:0.5;" width="87.043" x="283" y="658.5"/><ellipse cx="298" cy="674.5" fill="#ADD1B2" rx="11" ry="11" style="stroke:#181818;stroke-width:1.0;"/><path d="M300.9688,680.1406 Q300.3906,680.4375 299.75,680.5781 Q299.1094,680.7344 298.4063,680.7344 Q295.9063,680.7344 294.5781,679.0938 Q293.2656,677.4375 293.2656,674.3125 Q293.2656,671.1875 294.5781,669.5313 Q295.9063,667.875 298.4063,667.875 Q299.1094,667.875 299.75,668.0313 Q300.4063,668.1875 300.9688,668.4844 L300.9688,671.2031 Q300.3438,670.625 299.75,670.3594 Q299.1563,670.0781 298.5313,670.0781 Q297.1875,670.0781 296.5,671.1563 Q295.8125,672.2188 295.8125,674.3125 Q295.8125,676.4063 296.5,677.4844 Q297.1875,678.5469 298.5313,678.5469 Q299.1563,678.5469 299.75,678.2813 Q300.3438,678 300.9688,677.4219 L300.9688,680.1406 Z " fill="#000000"/><text fill="#000000" font-family="sans-serif" font-size="14" lengthAdjust="spacing" textLength="55.043" x="312" y="679.3467">Entrega</text><line style="stroke:#181818;stroke-width:0.5;" x1="284" x2="369.043" y1="690.5" y2="690.5"/><line style="stroke:#181818;stroke-width:0.5;" x1="284" x2="369.043" y1="698.5" y2="698.5"/></g><!--class Persona--><g id="elem_Persona"><rect codeLine="21" fill="#F1F1F1" height="96.8906" id="Persona" rx="2.5" ry="2.5" style="stroke:#181818;stroke-width:0.5;" width="120.7734" x="367" y="800"/><ellipse cx="396.6927" cy="816" fill="#ADD1B2" rx="11" ry="11" style="stroke:#181818;stroke-width:1.0;"/><path d="M399.6614,821.6406 Q399.0833,821.9375 398.4427,822.0781 Q397.8021,822.2344 397.0989,822.2344 Q394.5989,822.2344 393.2708,820.5938 Q391.9583,818.9375 391.9583,815.8125 Q391.9583,812.6875 393.2708,811.0313 Q394.5989,809.375 397.0989,809.375 Q397.8021,809.375 398.4427,809.5313 Q399.0989,809.6875 399.6614,809.9844 L399.6614,812.7031 Q399.0364,812.125 398.4427,811.8594 Q397.8489,811.5781 397.2239,811.5781 Q395.8802,811.5781 395.1927,812.6563 Q394.5052,813.7188 394.5052,815.8125 Q394.5052,817.9063 395.1927,818.9844 Q395.8802,820.0469 397.2239,820.0469 Q397.8489,820.0469 398.4427,819.7813 Q399.0364,819.5 399.6614,818.9219 L399.6614,821.6406 Z " fill="#000000"/><text fill="#000000" font-family="sans-serif" font-size="14" lengthAdjust="spacing" textLength="56.123" x="413.9577" y="820.8467">Persona</text><line style="stroke:#181818;stroke-width:0.5;" x1="368" x2="486.7734" y1="832" y2="832"/><text fill="#000000" font-family="sans-serif" font-size="14" lengthAdjust="spacing" textLength="99.2373" x="373" y="848.9951">nombre:string</text><text fill="#000000" font-family="sans-serif" font-size="14" lengthAdjust="spacing" textLength="108.7734" x="373" y="865.292">direcci&#243;n:string</text><text fill="#000000" font-family="sans-serif" font-size="14" lengthAdjust="spacing" textLength="83.5146" x="373" y="881.5889">email:string</text><line style="stroke:#181818;stroke-width:0.5;" x1="368" x2="486.7734" y1="888.8906" y2="888.8906"/></g><!--class Adopci?n--><g id="elem_Adopci&#243;n"><rect codeLine="26" fill="#F1F1F1" height="64.2969" id="Adopci&#243;n" rx="2.5" ry="2.5" style="stroke:#181818;stroke-width:0.5;" width="185.3457" x="626" y="974"/><ellipse cx="681.9521" cy="990" fill="#ADD1B2" rx="11" ry="11" style="stroke:#181818;stroke-width:1.0;"/><path d="M684.9209,995.6406 Q684.3428,995.9375 683.7021,996.0781 Q683.0615,996.2344 682.3584,996.2344 Q679.8584,996.2344 678.5303,994.5938 Q677.2178,992.9375 677.2178,989.8125 Q677.2178,986.6875 678.5303,985.0313 Q679.8584,983.375 682.3584,983.375 Q683.0615,983.375 683.7021,983.5313 Q684.3584,983.6875 684.9209,983.9844 L684.9209,986.7031 Q684.2959,986.125 683.7021,985.8594 Q683.1084,985.5781 682.4834,985.5781 Q681.1396,985.5781 680.4521,986.6563 Q679.7646,987.7188 679.7646,989.8125 Q679.7646,991.9063 680.4521,992.9844 Q681.1396,994.0469 682.4834,994.0469 Q683.1084,994.0469 683.7021,993.7813 Q684.2959,993.5 684.9209,992.9219 L684.9209,995.6406 Z " fill="#000000"/><text fill="#000000" font-family="sans-serif" font-size="14" lengthAdjust="spacing" textLength="64.9414" x="702.4521" y="994.8467">Adopci&#243;n</text><line style="stroke:#181818;stroke-width:0.5;" x1="627" x2="810.3457" y1="1006" y2="1006"/><text fill="#000000" font-family="sans-serif" font-size="14" lengthAdjust="spacing" textLength="173.3457" x="632" y="1022.9951">fechaHoraAdopci&#243;n:date</text><line style="stroke:#181818;stroke-width:0.5;" x1="627" x2="810.3457" y1="1030.2969" y2="1030.2969"/></g><ellipse cx="541.5" cy="1006" fill="#181818" rx="2" ry="2" style="stroke:#181818;stroke-width:1.0;"/><g id="elem_Ny"><path d="M594.5,828.5 L594.5,868.7656 A0,0 0 0 0 594.5,868.7656 L754.86,868.7656 L727.68,973.95 L762.86,868.7656 L934.3809,868.7656 A0,0 0 0 0 934.3809,868.7656 L934.3809,838.5 L924.3809,828.5 L594.5,828.5 A0,0 0 0 0 594.5,828.5 " fill="#FEFFDD" style="stroke:#181818;stroke-width:0.5;"/><path d="M924.3809,828.5 L924.3809,838.5 L934.3809,838.5 L924.3809,828.5 " fill="#FEFFDD" style="stroke:#181818;stroke-width:0.5;"/><text fill="#000000" font-family="sans-serif" font-size="13" lengthAdjust="spacing" textLength="263.2056" x="600.5" y="845.5669">{RN-01} Una persona no puede adoptar</text><text fill="#000000" font-family="sans-serif" font-size="13" lengthAdjust="spacing" textLength="302.3516" x="600.5" y="860.6997">m&#225;s de dos animales abandonados en un mes</text></g><g id="elem_GMN26"><path d="M6,525 L6,565.2656 A0,0 0 0 0 6,565.2656 L148.5,565.2656 L152.5,641.84 L156.5,565.2656 L298.7368,565.2656 A0,0 0 0 0 298.7368,565.2656 L298.7368,535 L288.7368,525 L6,525 A0,0 0 0 0 6,525 " fill="#FEFFDD" style="stroke:#181818;stroke-width:0.5;"/><path d="M288.7368,525 L288.7368,535 L298.7368,535 L288.7368,525 " fill="#FEFFDD" style="stroke:#181818;stroke-width:0.5;"/><text fill="#000000" font-family="sans-serif" font-size="13" lengthAdjust="spacing" textLength="200.4272" x="12" y="542.0669">{RN-02} En caso de abandono</text><text fill="#000000" font-family="sans-serif" font-size="13" lengthAdjust="spacing" textLength="271.7368" x="12" y="557.1997">datos obligatorios fechaAbandono y lugar</text></g><!--link Especie to Raza--><g id="link_Especie_Raza"><path codeLine="32" d="M491.5,71.19 C491.5,94.09 491.5,125.04 491.5,147.91 " fill="none" id="Especie-Raza" style="stroke:#181818;stroke-width:1.0;"/><polygon fill="#000000" points="496.5,104.5664,493.5611,113.6115,499.4389,113.6115,496.5,104.5664" style="stroke:#000000;stroke-width:1.0;"/><text fill="#000000" font-family="sans-serif" font-size="13" lengthAdjust="spacing" textLength="74.9658" x="505.5" y="114.0669">perteneceA</text><text fill="#000000" font-family="sans-serif" font-size="13" lengthAdjust="spacing" textLength="24.8066" x="465.1584" y="91.426">0..1</text><text fill="#000000" font-family="sans-serif" font-size="13" lengthAdjust="spacing" textLength="6.5" x="484.9155" y="136.7945">*</text></g><!--link Raza to Animal--><g id="link_Raza_Animal"><path codeLine="33" d="M491.5,212.09 C491.5,234.07 491.5,263.95 491.5,288.91 " fill="none" id="Raza-Animal" style="stroke:#181818;stroke-width:1.0;"/><polygon fill="#000000" points="496.5,245.5664,493.5611,254.6115,499.4389,254.6115,496.5,245.5664" style="stroke:#000000;stroke-width:1.0;"/><text fill="#000000" font-family="sans-serif" font-size="13" lengthAdjust="spacing" textLength="74.9658" x="505.5" y="255.0669">perteneceA</text><text fill="#000000" font-family="sans-serif" font-size="13" lengthAdjust="spacing" textLength="24.8066" x="465.0909" y="232.3054">0..1</text><text fill="#000000" font-family="sans-serif" font-size="13" lengthAdjust="spacing" textLength="6.5" x="485.0903" y="278.1063">*</text></g><!--link Animal to Ingreso--><g id="link_Animal_Ingreso"><path codeLine="34" d="M491.5,386.19 C491.5,457.61 491.5,590.38 491.5,650.49 " fill="none" id="Animal-Ingreso" style="stroke:#181818;stroke-width:1.0;"/><polygon fill="#000000" points="496.5,491.5664,499.4389,482.5213,493.5611,482.5213,496.5,491.5664" style="stroke:#000000;stroke-width:1.0;"/><text fill="#000000" font-family="sans-serif" font-size="13" lengthAdjust="spacing" textLength="79.3838" x="505.5" y="491.0669">esIngresado</text><text fill="#000000" font-family="sans-serif" font-size="13" lengthAdjust="spacing" textLength="24.8066" x="465.9198" y="405.8237">0..1</text><text fill="#000000" font-family="sans-serif" font-size="13" lengthAdjust="spacing" textLength="24.8066" x="465.1575" y="639.391">0..1</text></g><!--link Ingreso to Persona--><g id="link_Ingreso_Persona"><path codeLine="36" d="M470.47,714.67 C463.33,726.31 455.83,739.89 450.5,753 C444.53,767.71 439.84,784.35 436.3,799.53 " fill="none" id="Ingreso-Persona" style="stroke:#181818;stroke-width:1.0;"/><polygon fill="#000000" points="457.3676,756.9283,451.2629,764.221,456.7153,766.4165,457.3676,756.9283" style="stroke:#000000;stroke-width:1.0;"/><text fill="#000000" font-family="sans-serif" font-size="13" lengthAdjust="spacing" textLength="50.8955" x="464.5" y="766.0669">entrega</text><text fill="#000000" font-family="sans-serif" font-size="13" lengthAdjust="spacing" textLength="6.5" x="459.6147" y="734.9019">*</text><text fill="#000000" font-family="sans-serif" font-size="13" lengthAdjust="spacing" textLength="8.271" x="428.9784" y="789.025">1</text></g><!--link Persona to apoint17--><g id="link_Persona_apoint17"><path d="M435.18,897.47 C439.35,913.32 445.74,930.36 455.5,944 C480.21,978.54 530.76,1000.57 540.03,1004.4 " fill="none" id="Persona-apoint17" style="stroke:#181818;stroke-width:1.0;"/><polygon fill="#000000" points="456.9994,931.9963,461.2336,940.5123,465.4305,936.397,456.9994,931.9963" style="stroke:#000000;stroke-width:1.0;"/><text fill="#000000" font-family="sans-serif" font-size="13" lengthAdjust="spacing" textLength="45.4873" x="469.5" y="940.0669">adopta</text><text fill="#000000" font-family="sans-serif" font-size="13" lengthAdjust="spacing" textLength="6.5" x="429.8262" y="916.7876">*</text></g><!--link apoint17 to Ingreso--><g id="link_apoint17_Ingreso"><path d="M541.53,1003.75 C541.87,989.5 544.25,856.36 519.5,753 C516.41,740.1 511.34,726.44 506.35,714.68 " fill="none" id="apoint17-Ingreso" style="stroke:#181818;stroke-width:1.0;"/><text fill="#000000" font-family="sans-serif" font-size="13" lengthAdjust="spacing" textLength="8.271" x="500.6651" y="734.914">1</text></g><!--link apoint17 to Adopci?n--><g id="link_apoint17_Adopci&#243;n"><path d="M543.57,1006 C571.02,1006 598.47,1006 625.91,1006 " fill="none" id="apoint17-Adopci&#243;n" style="stroke:#181818;stroke-width:1.0;stroke-dasharray:7.0,7.0;"/></g><!--link Abandono to Ingreso--><g id="link_Abandono_Ingreso"><path codeLine="39" d="M195.72,641.98 C212.98,628.43 233.87,615 255.5,608 C285.52,598.28 367.7,597.62 397.5,608 C421.88,616.49 431.5897,621.9063 448.6397,637.9463 " fill="none" id="Abandono-to-Ingreso" style="stroke:#181818;stroke-width:1.0;"/><polygon fill="none" points="461.75,650.28,452.7509,633.5762,444.5285,642.3164,461.75,650.28" style="stroke:#181818;stroke-width:1.0;"/><text fill="#000000" font-family="sans-serif" font-size="13" lengthAdjust="spacing" textLength="140.9751" x="256.5" y="608.0669">{Completa, Disjunta}</text></g><!--link Entrega to Ingreso--><g id="link_Entrega_Ingreso"><path codeLine="40" d="M370.01,682.5 C381.55,682.5 375.1,682.5 386.65,682.5 " fill="none" id="Entrega-to-Ingreso" style="stroke:#181818;stroke-width:1.0;"/><polygon fill="none" points="404.65,682.5,386.65,676.5,386.65,688.5,404.65,682.5" style="stroke:#181818;stroke-width:1.0;"/></g><!--SRC=[ZLF1Rjim3BtdAmXVkWsrqUuO3062hi1s2Oe0EmqxC3Bhgh0bGP8FQPgFsJVi4_fZeqKvhfCTfeCXFZw9xv6oQZ44k0-EbAR30dYH1CiGlJRDufX0bNXRV44XUTvD3CckZUwmbRnwqYxduUTDLTt-Ih2ntSxJFn8r1UMrK_hjZvdknHrlKSLS_hjfF0KBKkAHr1D-inuplAmnqYHcXwQsnfvnHrZ8Gwhj6_JdLkvDzDImrn5u81-ioUPdBaI-zgHcubCdEzJjHPTgApRFbOtuw6F8fi_LEbYbKMbhA2mIb0S6nT310ieIYaz56WyiuGiuyf4CALedTiBdL9aLao_PENNYryCH2SO1BFcHo1vh2ojHcLi4nLGbjv7vA_24hNx1n9rHUoVaTvVdOwl_8RC25qVkXunVZwS-GiLhQheup8y0Ib- -hjxTLHpkRETQYdWDNtLuxat4Oo4TpvhcHsGQLx2bOSegZoXXvMnDqpGs4c20pJw5X-sclBazmWzswB9JLkPwgYbxytAmU_iT-3-1sWR0D2FYZLZ10IG3lO6EqR4McJhLIy5cNrLJ7oOjqJgmZwUcJAe-7zarA6IVWvQnQVBWCN95ksjrmpklEKWl-TJQlVnObpB-0W00]--></g></svg>