<svg xmlns="http://www.w3.org/2000/svg" xmlns:xlink="http://www.w3.org/1999/xlink" contentStyleType="text/css" height="259px" preserveAspectRatio="none" style="width:427px;height:259px;background:#FFFFFF;" version="1.1" viewBox="0 0 427 259" width="427px" zoomAndPan="magnify"><defs/><g><!--class G?nero--><g id="elem_G&#233;nero"><rect codeLine="2" fill="#F1F1F1" height="105.1563" id="G&#233;nero" rx="2.5" ry="2.5" style="stroke:#181818;stroke-width:0.5;" width="111.9238" x="7" y="15"/><ellipse cx="22" cy="35.1328" fill="#EB937F" rx="11" ry="11" style="stroke:#181818;stroke-width:1.0;"/><path d="M26.1094,41.1328 L18.3906,41.1328 L18.3906,28.7422 L26.1094,28.7422 L26.1094,30.8984 L20.8438,30.8984 L20.8438,33.5703 L25.6094,33.5703 L25.6094,35.7266 L20.8438,35.7266 L20.8438,38.9766 L26.1094,38.9766 L26.1094,41.1328 Z " fill="#000000"/><text fill="#000000" font-family="sans-serif" font-size="12" font-style="italic" lengthAdjust="spacing" textLength="83.9238" x="34" y="31.1387">&#171;Enumerado&#187;</text><text fill="#000000" font-family="sans-serif" font-size="14" lengthAdjust="spacing" textLength="51.2695" x="50.3271" y="46.9639">G&#233;nero</text><line style="stroke:#181818;stroke-width:0.5;" x1="8" x2="117.9238" y1="55.2656" y2="55.2656"/><text fill="#000000" font-family="sans-serif" font-size="14" lengthAdjust="spacing" textLength="69.7402" x="13" y="72.2607">Masculino</text><text fill="#000000" font-family="sans-serif" font-size="14" lengthAdjust="spacing" textLength="69.1182" x="13" y="88.5576">Femenino</text><text fill="#000000" font-family="sans-serif" font-size="14" lengthAdjust="spacing" textLength="38.124" x="13" y="104.8545">Otros</text><line style="stroke:#181818;stroke-width:0.5;" x1="8" x2="117.9238" y1="112.1563" y2="112.1563"/></g><!--class Usuario--><g id="elem_Usuario"><rect codeLine="7" fill="#F1F1F1" height="121.4531" id="Usuario" rx="2.5" ry="2.5" style="stroke:#181818;stroke-width:0.5;" width="121.7441" x="154" y="7"/><ellipse cx="183.9027" cy="27.1328" fill="#ADD1B2" rx="11" ry="11" style="stroke:#181818;stroke-width:1.0;"/><path d="M186.8715,32.7734 Q186.2934,33.0703 185.6527,33.2109 Q185.0121,33.3672 184.309,33.3672 Q181.809,33.3672 180.4809,31.7266 Q179.1684,30.0703 179.1684,26.9453 Q179.1684,23.8203 180.4809,22.1641 Q181.809,20.5078 184.309,20.5078 Q185.0121,20.5078 185.6527,20.6641 Q186.309,20.8203 186.8715,21.1172 L186.8715,23.8359 Q186.2465,23.2578 185.6527,22.9922 Q185.059,22.7109 184.434,22.7109 Q183.0902,22.7109 182.4027,23.7891 Q181.7152,24.8516 181.7152,26.9453 Q181.7152,29.0391 182.4027,30.1172 Q183.0902,31.1797 184.434,31.1797 Q185.059,31.1797 185.6527,30.9141 Q186.2465,30.6328 186.8715,30.0547 L186.8715,32.7734 Z " fill="#000000"/><text fill="#000000" font-family="sans-serif" font-size="12" font-style="italic" lengthAdjust="spacing" textLength="60.627" x="199.2145" y="23.1387">&#171;Entidad&#187;</text><text fill="#000000" font-family="sans-serif" font-size="14" lengthAdjust="spacing" textLength="53.2041" x="202.9259" y="38.9639">Usuario</text><line style="stroke:#181818;stroke-width:0.5;" x1="155" x2="274.7441" y1="47.2656" y2="47.2656"/><text fill="#000000" font-family="sans-serif" font-size="14" lengthAdjust="spacing" textLength="105.2803" x="160" y="64.2607">nombre: String</text><text fill="#000000" font-family="sans-serif" font-size="14" lengthAdjust="spacing" textLength="109.7441" x="160" y="80.5576">g&#233;nero: G&#233;nero</text><text fill="#000000" font-family="sans-serif" font-size="14" lengthAdjust="spacing" textLength="94.4932" x="160" y="96.8545">edad: Integer</text><text fill="#000000" font-family="sans-serif" font-size="14" lengthAdjust="spacing" textLength="89.5576" x="160" y="113.1514">email: String</text><line style="stroke:#181818;stroke-width:0.5;" x1="155" x2="274.7441" y1="120.4531" y2="120.4531"/></g><!--class Afici?n--><g id="elem_Afici&#243;n"><rect codeLine="13" fill="#F1F1F1" height="64.2969" id="Afici&#243;n" rx="2.5" ry="2.5" style="stroke:#181818;stroke-width:0.5;" width="144.9043" x="142.5" y="188"/><ellipse cx="186.9917" cy="204" fill="#ADD1B2" rx="11" ry="11" style="stroke:#181818;stroke-width:1.0;"/><path d="M189.9604,209.6406 Q189.3823,209.9375 188.7417,210.0781 Q188.1011,210.2344 187.3979,210.2344 Q184.8979,210.2344 183.5698,208.5938 Q182.2573,206.9375 182.2573,203.8125 Q182.2573,200.6875 183.5698,199.0313 Q184.8979,197.375 187.3979,197.375 Q188.1011,197.375 188.7417,197.5313 Q189.3979,197.6875 189.9604,197.9844 L189.9604,200.7031 Q189.3354,200.125 188.7417,199.8594 Q188.1479,199.5781 187.5229,199.5781 Q186.1792,199.5781 185.4917,200.6563 Q184.8042,201.7188 184.8042,203.8125 Q184.8042,205.9063 185.4917,206.9844 Q186.1792,208.0469 187.5229,208.0469 Q188.1479,208.0469 188.7417,207.7813 Q189.3354,207.5 189.9604,206.9219 L189.9604,209.6406 Z " fill="#000000"/><text fill="#000000" font-family="sans-serif" font-size="14" lengthAdjust="spacing" textLength="47.4209" x="207.4917" y="208.8467">Afici&#243;n</text><line style="stroke:#181818;stroke-width:0.5;" x1="143.5" x2="286.4043" y1="220" y2="220"/><text fill="#000000" font-family="sans-serif" font-size="14" lengthAdjust="spacing" textLength="132.9043" x="148.5" y="236.9951">afici&#243;n: TipoAfici&#243;n</text><line style="stroke:#181818;stroke-width:0.5;" x1="143.5" x2="286.4043" y1="244.2969" y2="244.2969"/></g><!--class TipoAfici?n--><g id="elem_TipoAfici&#243;n"><rect codeLine="16" fill="#F1F1F1" height="113.1875" id="TipoAfici&#243;n" rx="2.5" ry="2.5" style="stroke:#181818;stroke-width:0.5;" width="109.3145" x="311.5" y="11"/><ellipse cx="326.5" cy="27" fill="#EB937F" rx="11" ry="11" style="stroke:#181818;stroke-width:1.0;"/><path d="M330.6094,33 L322.8906,33 L322.8906,20.6094 L330.6094,20.6094 L330.6094,22.7656 L325.3438,22.7656 L325.3438,25.4375 L330.1094,25.4375 L330.1094,27.5938 L325.3438,27.5938 L325.3438,30.8438 L330.6094,30.8438 L330.6094,33 Z " fill="#000000"/><text fill="#000000" font-family="sans-serif" font-size="14" lengthAdjust="spacing" textLength="77.3145" x="340.5" y="31.8467">TipoAfici&#243;n</text><line style="stroke:#181818;stroke-width:0.5;" x1="312.5" x2="419.8145" y1="43" y2="43"/><text fill="#000000" font-family="sans-serif" font-size="14" lengthAdjust="spacing" textLength="68.8242" x="317.5" y="59.9951">Literatura</text><text fill="#000000" font-family="sans-serif" font-size="14" lengthAdjust="spacing" textLength="31.1514" x="317.5" y="76.292">Cine</text><text fill="#000000" font-family="sans-serif" font-size="14" lengthAdjust="spacing" textLength="56.7041" x="317.5" y="92.5889">Deporte</text><text fill="#000000" font-family="sans-serif" font-size="14" lengthAdjust="spacing" textLength="90.0771" x="317.5" y="108.8857">Gastronom&#237;a</text><line style="stroke:#181818;stroke-width:0.5;" x1="312.5" x2="419.8145" y1="116.1875" y2="116.1875"/></g><!--reverse link Usuario to Afici?n--><g id="link_Usuario_Afici&#243;n"><path codeLine="23" d="M215,140.41 C215,160.74 215,170.63 215,187.8 " fill="none" id="Usuario-backto-Afici&#243;n" style="stroke:#181818;stroke-width:1.0;"/><polygon fill="#181818" points="215,128.41,211,134.41,215,140.41,219,134.41,215,128.41" style="stroke:#181818;stroke-width:1.0;"/><text fill="#000000" font-family="sans-serif" font-size="13" lengthAdjust="spacing" textLength="6.5" x="208.468" y="177.0348">*</text></g><!--SRC=[LL1B2i903DrxYk2ou0MA258_28eBzG3HnX9eCoKpNOa7Sk7A8_HYZjMPsco6zzxavILBQIfOjmyXDJ2Tmj9ZKimDp6Qt4VZQeRqq9Olfq8egaW3sJeqTtQ43MOdMmiasgFopSfnZ7eq-9QOwAwLmSCfIHBhu1aX3aYYGDqXX8uuAqfwjaCk1oI33_CeNRby2_LpyKIaSkJRXmt_hP_61-DUzPUTluXf5Y5p6GX4ig3Rgg5VNQFrj_BRj4yEKxWttIIOJ62VZcFKD]--></g></svg>