<svg xmlns="http://www.w3.org/2000/svg" xmlns:xlink="http://www.w3.org/1999/xlink" contentStyleType="text/css" height="679px" preserveAspectRatio="none" style="width:1101px;height:679px;background:#FFFFFF;" version="1.1" viewBox="0 0 1101 679" width="1101px" zoomAndPan="magnify"><defs/><g><!--class Especie--><g id="elem_Especie"><rect codeLine="1" fill="#F1F1F1" height="64.2969" id="Especie" rx="2.5" ry="2.5" style="stroke:#181818;stroke-width:0.5;" width="110.5127" x="278" y="7"/><ellipse cx="304.1028" cy="23" fill="#ADD1B2" rx="11" ry="11" style="stroke:#181818;stroke-width:1.0;"/><path d="M307.0715,28.6406 Q306.4934,28.9375 305.8528,29.0781 Q305.2122,29.2344 304.509,29.2344 Q302.009,29.2344 300.6809,27.5938 Q299.3684,25.9375 299.3684,22.8125 Q299.3684,19.6875 300.6809,18.0313 Q302.009,16.375 304.509,16.375 Q305.2122,16.375 305.8528,16.5313 Q306.509,16.6875 307.0715,16.9844 L307.0715,19.7031 Q306.4465,19.125 305.8528,18.8594 Q305.259,18.5781 304.634,18.5781 Q303.2903,18.5781 302.6028,19.6563 Q301.9153,20.7188 301.9153,22.8125 Q301.9153,24.9063 302.6028,25.9844 Q303.2903,27.0469 304.634,27.0469 Q305.259,27.0469 305.8528,26.7813 Q306.4465,26.5 307.0715,25.9219 L307.0715,28.6406 Z " fill="#000000"/><text fill="#000000" font-family="sans-serif" font-size="14" lengthAdjust="spacing" textLength="53.8398" x="320.5701" y="27.8467">Especie</text><line style="stroke:#181818;stroke-width:0.5;" x1="279" x2="387.5127" y1="39" y2="39"/><text fill="#000000" font-family="sans-serif" font-size="14" lengthAdjust="spacing" textLength="98.5127" x="284" y="55.9951">especie:string</text><line style="stroke:#181818;stroke-width:0.5;" x1="279" x2="387.5127" y1="63.2969" y2="63.2969"/></g><!--class Raza--><g id="elem_Raza"><rect codeLine="4" fill="#F1F1F1" height="64.2969" id="Raza" rx="2.5" ry="2.5" style="stroke:#181818;stroke-width:0.5;" width="87.168" x="407" y="148"/><ellipse cx="431.4201" cy="164" fill="#ADD1B2" rx="11" ry="11" style="stroke:#181818;stroke-width:1.0;"/><path d="M434.3889,169.6406 Q433.8107,169.9375 433.1701,170.0781 Q432.5295,170.2344 431.8264,170.2344 Q429.3264,170.2344 427.9982,168.5938 Q426.6857,166.9375 426.6857,163.8125 Q426.6857,160.6875 427.9982,159.0313 Q429.3264,157.375 431.8264,157.375 Q432.5295,157.375 433.1701,157.5313 Q433.8264,157.6875 434.3889,157.9844 L434.3889,160.7031 Q433.7639,160.125 433.1701,159.8594 Q432.5764,159.5781 431.9514,159.5781 Q430.6076,159.5781 429.9201,160.6563 Q429.2326,161.7188 429.2326,163.8125 Q429.2326,165.9063 429.9201,166.9844 Q430.6076,168.0469 431.9514,168.0469 Q432.5764,168.0469 433.1701,167.7813 Q433.7639,167.5 434.3889,166.9219 L434.3889,169.6406 Z " fill="#000000"/><text fill="#000000" font-family="sans-serif" font-size="14" lengthAdjust="spacing" textLength="34.2344" x="447.5135" y="168.8467">Raza</text><line style="stroke:#181818;stroke-width:0.5;" x1="408" x2="493.168" y1="180" y2="180"/><text fill="#000000" font-family="sans-serif" font-size="14" lengthAdjust="spacing" textLength="75.168" x="413" y="196.9951">raza:string</text><line style="stroke:#181818;stroke-width:0.5;" x1="408" x2="493.168" y1="204.2969" y2="204.2969"/></g><!--class Animal--><g id="elem_Animal"><rect codeLine="7" fill="#F1F1F1" height="96.8906" id="Animal" rx="2.5" ry="2.5" style="stroke:#181818;stroke-width:0.5;" width="153.3262" x="374" y="291"/><ellipse cx="422.1899" cy="307" fill="#ADD1B2" rx="11" ry="11" style="stroke:#181818;stroke-width:1.0;"/><path d="M425.1587,312.6406 Q424.5806,312.9375 423.9399,313.0781 Q423.2993,313.2344 422.5962,313.2344 Q420.0962,313.2344 418.7681,311.5938 Q417.4556,309.9375 417.4556,306.8125 Q417.4556,303.6875 418.7681,302.0313 Q420.0962,300.375 422.5962,300.375 Q423.2993,300.375 423.9399,300.5313 Q424.5962,300.6875 425.1587,300.9844 L425.1587,303.7031 Q424.5337,303.125 423.9399,302.8594 Q423.3462,302.5781 422.7212,302.5781 Q421.3774,302.5781 420.6899,303.6563 Q420.0024,304.7188 420.0024,306.8125 Q420.0024,308.9063 420.6899,309.9844 Q421.3774,311.0469 422.7212,311.0469 Q423.3462,311.0469 423.9399,310.7813 Q424.5337,310.5 425.1587,309.9219 L425.1587,312.6406 Z " fill="#000000"/><text fill="#000000" font-family="sans-serif" font-size="14" lengthAdjust="spacing" textLength="48.4463" x="442.6899" y="311.8467">Animal</text><line style="stroke:#181818;stroke-width:0.5;" x1="375" x2="526.3262" y1="323" y2="323"/><text fill="#000000" font-family="sans-serif" font-size="14" lengthAdjust="spacing" textLength="116.3408" x="380" y="339.9951">chip:string [0..1]</text><text fill="#000000" font-family="sans-serif" font-size="14" lengthAdjust="spacing" textLength="141.3262" x="380" y="356.292">nombre:string [0..1]</text><text fill="#000000" font-family="sans-serif" font-size="14" lengthAdjust="spacing" textLength="124.9541" x="380" y="372.5889">descripci&#243;n:string</text><line style="stroke:#181818;stroke-width:0.5;" x1="375" x2="526.3262" y1="379.8906" y2="379.8906"/></g><!--class Ingreso--><g id="elem_Ingreso"><rect codeLine="12" fill="#F1F1F1" height="64.2969" id="Ingreso" rx="2.5" ry="2.5" style="stroke:#181818;stroke-width:0.5;" width="172.5215" x="567" y="467"/><ellipse cx="622.9521" cy="483" fill="#A9DCDF" rx="11" ry="11" style="stroke:#181818;stroke-width:1.0;"/><path d="M623.0615,478.3438 L621.9053,483.4219 L624.2334,483.4219 L623.0615,478.3438 Z M621.5771,476.1094 L624.5615,476.1094 L627.9209,488.5 L625.4678,488.5 L624.7021,485.4375 L621.4209,485.4375 L620.6709,488.5 L618.2334,488.5 L621.5771,476.1094 Z " fill="#000000"/><text fill="#000000" font-family="sans-serif" font-size="14" font-style="italic" lengthAdjust="spacing" textLength="52.1172" x="643.4521" y="487.8467">Ingreso</text><line style="stroke:#181818;stroke-width:0.5;" x1="568" x2="738.5215" y1="499" y2="499"/><text fill="#000000" font-family="sans-serif" font-size="14" lengthAdjust="spacing" textLength="160.5215" x="573" y="515.9951">fechaHoraIngreso:date</text><line style="stroke:#181818;stroke-width:0.5;" x1="568" x2="738.5215" y1="523.2969" y2="523.2969"/></g><!--class Abandono--><g id="elem_Abandono"><rect codeLine="15" fill="#F1F1F1" height="80.5938" id="Abandono" rx="2.5" ry="2.5" style="stroke:#181818;stroke-width:0.5;" width="191.2109" x="471" y="592"/><ellipse cx="526.9521" cy="608" fill="#ADD1B2" rx="11" ry="11" style="stroke:#181818;stroke-width:1.0;"/><path d="M529.9209,613.6406 Q529.3428,613.9375 528.7021,614.0781 Q528.0615,614.2344 527.3584,614.2344 Q524.8584,614.2344 523.5303,612.5938 Q522.2178,610.9375 522.2178,607.8125 Q522.2178,604.6875 523.5303,603.0313 Q524.8584,601.375 527.3584,601.375 Q528.0615,601.375 528.7021,601.5313 Q529.3584,601.6875 529.9209,601.9844 L529.9209,604.7031 Q529.2959,604.125 528.7021,603.8594 Q528.1084,603.5781 527.4834,603.5781 Q526.1396,603.5781 525.4521,604.6563 Q524.7646,605.7188 524.7646,607.8125 Q524.7646,609.9063 525.4521,610.9844 Q526.1396,612.0469 527.4834,612.0469 Q528.1084,612.0469 528.7021,611.7813 Q529.2959,611.5 529.9209,610.9219 L529.9209,613.6406 Z " fill="#000000"/><text fill="#000000" font-family="sans-serif" font-size="14" lengthAdjust="spacing" textLength="70.8066" x="547.4521" y="612.8467">Abandono</text><line style="stroke:#181818;stroke-width:0.5;" x1="472" x2="661.2109" y1="624" y2="624"/><text fill="#000000" font-family="sans-serif" font-size="14" lengthAdjust="spacing" textLength="179.2109" x="477" y="640.9951">fechaHoraAbandono:date</text><text fill="#000000" font-family="sans-serif" font-size="14" lengthAdjust="spacing" textLength="80.8896" x="477" y="657.292">lugar:string</text><line style="stroke:#181818;stroke-width:0.5;" x1="472" x2="661.2109" y1="664.5938" y2="664.5938"/></g><!--class Entrega--><g id="elem_Entrega"><rect codeLine="19" fill="#F1F1F1" height="48" id="Entrega" rx="2.5" ry="2.5" style="stroke:#181818;stroke-width:0.5;" width="87.043" x="697" y="608.5"/><ellipse cx="712" cy="624.5" fill="#ADD1B2" rx="11" ry="11" style="stroke:#181818;stroke-width:1.0;"/><path d="M714.9688,630.1406 Q714.3906,630.4375 713.75,630.5781 Q713.1094,630.7344 712.4063,630.7344 Q709.9063,630.7344 708.5781,629.0938 Q707.2656,627.4375 707.2656,624.3125 Q707.2656,621.1875 708.5781,619.5313 Q709.9063,617.875 712.4063,617.875 Q713.1094,617.875 713.75,618.0313 Q714.4063,618.1875 714.9688,618.4844 L714.9688,621.2031 Q714.3438,620.625 713.75,620.3594 Q713.1563,620.0781 712.5313,620.0781 Q711.1875,620.0781 710.5,621.1563 Q709.8125,622.2188 709.8125,624.3125 Q709.8125,626.4063 710.5,627.4844 Q711.1875,628.5469 712.5313,628.5469 Q713.1563,628.5469 713.75,628.2813 Q714.3438,628 714.9688,627.4219 L714.9688,630.1406 Z " fill="#000000"/><text fill="#000000" font-family="sans-serif" font-size="14" lengthAdjust="spacing" textLength="55.043" x="726" y="629.3467">Entrega</text><line style="stroke:#181818;stroke-width:0.5;" x1="698" x2="783.043" y1="640.5" y2="640.5"/><line style="stroke:#181818;stroke-width:0.5;" x1="698" x2="783.043" y1="648.5" y2="648.5"/></g><!--class Persona--><g id="elem_Persona"><rect codeLine="21" fill="#F1F1F1" height="96.8906" id="Persona" rx="2.5" ry="2.5" style="stroke:#181818;stroke-width:0.5;" width="120.7734" x="562" y="291"/><ellipse cx="591.6927" cy="307" fill="#ADD1B2" rx="11" ry="11" style="stroke:#181818;stroke-width:1.0;"/><path d="M594.6614,312.6406 Q594.0833,312.9375 593.4427,313.0781 Q592.8021,313.2344 592.0989,313.2344 Q589.5989,313.2344 588.2708,311.5938 Q586.9583,309.9375 586.9583,306.8125 Q586.9583,303.6875 588.2708,302.0313 Q589.5989,300.375 592.0989,300.375 Q592.8021,300.375 593.4427,300.5313 Q594.0989,300.6875 594.6614,300.9844 L594.6614,303.7031 Q594.0364,303.125 593.4427,302.8594 Q592.8489,302.5781 592.2239,302.5781 Q590.8802,302.5781 590.1927,303.6563 Q589.5052,304.7188 589.5052,306.8125 Q589.5052,308.9063 590.1927,309.9844 Q590.8802,311.0469 592.2239,311.0469 Q592.8489,311.0469 593.4427,310.7813 Q594.0364,310.5 594.6614,309.9219 L594.6614,312.6406 Z " fill="#000000"/><text fill="#000000" font-family="sans-serif" font-size="14" lengthAdjust="spacing" textLength="56.123" x="608.9577" y="311.8467">Persona</text><line style="stroke:#181818;stroke-width:0.5;" x1="563" x2="681.7734" y1="323" y2="323"/><text fill="#000000" font-family="sans-serif" font-size="14" lengthAdjust="spacing" textLength="99.2373" x="568" y="339.9951">nombre:string</text><text fill="#000000" font-family="sans-serif" font-size="14" lengthAdjust="spacing" textLength="108.7734" x="568" y="356.292">direcci&#243;n:string</text><text fill="#000000" font-family="sans-serif" font-size="14" lengthAdjust="spacing" textLength="83.5146" x="568" y="372.5889">email:string</text><line style="stroke:#181818;stroke-width:0.5;" x1="563" x2="681.7734" y1="379.8906" y2="379.8906"/></g><!--class Adopci?n--><g id="elem_Adopci&#243;n"><rect codeLine="26" fill="#F1F1F1" height="64.2969" id="Adopci&#243;n" rx="2.5" ry="2.5" style="stroke:#181818;stroke-width:0.5;" width="185.3457" x="185" y="467"/><ellipse cx="240.9521" cy="483" fill="#ADD1B2" rx="11" ry="11" style="stroke:#181818;stroke-width:1.0;"/><path d="M243.9209,488.6406 Q243.3428,488.9375 242.7021,489.0781 Q242.0615,489.2344 241.3584,489.2344 Q238.8584,489.2344 237.5303,487.5938 Q236.2178,485.9375 236.2178,482.8125 Q236.2178,479.6875 237.5303,478.0313 Q238.8584,476.375 241.3584,476.375 Q242.0615,476.375 242.7021,476.5313 Q243.3584,476.6875 243.9209,476.9844 L243.9209,479.7031 Q243.2959,479.125 242.7021,478.8594 Q242.1084,478.5781 241.4834,478.5781 Q240.1396,478.5781 239.4521,479.6563 Q238.7646,480.7188 238.7646,482.8125 Q238.7646,484.9063 239.4521,485.9844 Q240.1396,487.0469 241.4834,487.0469 Q242.1084,487.0469 242.7021,486.7813 Q243.2959,486.5 243.9209,485.9219 L243.9209,488.6406 Z " fill="#000000"/><text fill="#000000" font-family="sans-serif" font-size="14" lengthAdjust="spacing" textLength="64.9414" x="261.4521" y="487.8467">Adopci&#243;n</text><line style="stroke:#181818;stroke-width:0.5;" x1="186" x2="369.3457" y1="499" y2="499"/><text fill="#000000" font-family="sans-serif" font-size="14" lengthAdjust="spacing" textLength="173.3457" x="191" y="515.9951">fechaHoraAdopci&#243;n:date</text><line style="stroke:#181818;stroke-width:0.5;" x1="186" x2="369.3457" y1="523.2969" y2="523.2969"/></g><g id="elem_N1"><path d="M718,289 L718,389.7969 L1094.6465,389.7969 L1094.6465,299 L1084.6465,289 L718,289 " fill="#FEFFDD" style="stroke:#181818;stroke-width:0.5;"/><path d="M1084.6465,289 L1084.6465,299 L1094.6465,299 L1084.6465,289 " fill="#FEFFDD" style="stroke:#181818;stroke-width:1.0;"/><text fill="#000000" font-family="sans-serif" font-size="13" lengthAdjust="spacing" textLength="50.1338" x="724" y="306.0669">[RN-02]</text><text fill="#000000" font-family="sans-serif" font-size="13" lengthAdjust="spacing" textLength="309.2451" x="724" y="321.1997">Generalizaci&#243;n Ingreso = {Completa, Disjunta}</text><text fill="#000000" font-family="sans-serif" font-size="13" lengthAdjust="spacing" textLength="187.916" x="724" y="336.3325">- Si Ingreso es Abandono =&gt;</text><text fill="#000000" font-family="sans-serif" font-size="13" lengthAdjust="spacing" textLength="331.1128" x="740.5293" y="351.4653">lugarHallazgo y fechaHoraHallazgo OBLIGATORIOS</text><text fill="#000000" font-family="sans-serif" font-size="13" lengthAdjust="spacing" textLength="173.2783" x="724" y="366.5981">- Si Ingreso es Entrega =&gt;</text><text fill="#000000" font-family="sans-serif" font-size="13" lengthAdjust="spacing" textLength="339.1172" x="740.5293" y="381.731">Persona OBLIGATORIA con nombre, direccion, email</text></g><g id="elem_N2"><path d="M529,152.5 L529,207.8984 A0,0 0 0 0 529,207.8984 L631.09,207.8984 L517.73,290.8 L639.09,207.8984 L815.7129,207.8984 A0,0 0 0 0 815.7129,207.8984 L815.7129,162.5 L805.7129,152.5 L529,152.5 A0,0 0 0 0 529,152.5 " fill="#FEFFDD" style="stroke:#181818;stroke-width:0.5;"/><path d="M805.7129,152.5 L805.7129,162.5 L815.7129,162.5 L805.7129,152.5 " fill="#FEFFDD" style="stroke:#181818;stroke-width:0.5;"/><text fill="#000000" font-family="sans-serif" font-size="13" lengthAdjust="spacing" textLength="76.9907" x="535" y="169.5669">[Integridad]</text><text fill="#000000" font-family="sans-serif" font-size="13" lengthAdjust="spacing" textLength="167.2036" x="535" y="184.6997">Si Animal.raza != null =&gt;</text><text fill="#000000" font-family="sans-serif" font-size="13" lengthAdjust="spacing" textLength="249.1836" x="551.5293" y="199.8325">Animal.especie = Animal.raza.especie</text></g><g id="elem_N3"><path d="M6,312 L6,367.3984 L338.7397,367.3984 L338.7397,322 L328.7397,312 L6,312 " fill="#FEFFDD" style="stroke:#181818;stroke-width:0.5;"/><path d="M328.7397,312 L328.7397,322 L338.7397,322 L328.7397,312 " fill="#FEFFDD" style="stroke:#181818;stroke-width:1.0;"/><text fill="#000000" font-family="sans-serif" font-size="13" lengthAdjust="spacing" textLength="50.1338" x="12" y="329.0669">[RN-01]</text><text fill="#000000" font-family="sans-serif" font-size="13" lengthAdjust="spacing" textLength="293.4458" x="12" y="344.1997">Una Persona no puede adoptar &gt; 2 Animales</text><text fill="#000000" font-family="sans-serif" font-size="13" lengthAdjust="spacing" textLength="311.7397" x="12" y="359.3325">con Ingreso de tipo Abandono en el MISMO mes</text></g><!--link Especie to Raza--><g id="link_Especie_Raza"><path codeLine="31" d="M359.76,71.19 C379.03,94.09 405.08,125.04 424.33,147.91 " fill="none" id="Especie-Raza" style="stroke:#181818;stroke-width:1.0;"/><polygon fill="#000000" points="407.7196,113.3919,404.1438,104.5791,399.6467,108.364,407.7196,113.3919" style="stroke:#000000;stroke-width:1.0;"/><text fill="#000000" font-family="sans-serif" font-size="13" lengthAdjust="spacing" textLength="56.2847" x="413.5" y="114.0669">contiene</text><text fill="#000000" font-family="sans-serif" font-size="13" lengthAdjust="spacing" textLength="8.271" x="356.4293" y="91.426">1</text><text fill="#000000" font-family="sans-serif" font-size="13" lengthAdjust="spacing" textLength="6.5" x="412.3479" y="136.7945">*</text></g><!--link Especie to Animal--><g id="link_Especie_Animal"><path codeLine="32" d="M323.45,71.19 C313.79,106.74 303.24,165.89 322.5,212 C335.32,242.7 359.63,269.75 383.65,290.88 " fill="none" id="Especie-Animal" style="stroke:#181818;stroke-width:1.0;"/><polygon fill="#000000" points="328.8214,184.8886,329.2654,175.3884,323.5965,176.9418,328.8214,184.8886" style="stroke:#000000;stroke-width:1.0;"/><text fill="#000000" font-family="sans-serif" font-size="13" lengthAdjust="spacing" textLength="52.4126" x="336.5" y="184.5669">clasifica</text><text fill="#000000" font-family="sans-serif" font-size="13" lengthAdjust="spacing" textLength="8.271" x="312.6304" y="91.426">1</text><text fill="#000000" font-family="sans-serif" font-size="13" lengthAdjust="spacing" textLength="6.5" x="367.8396" y="280.072">*</text></g><!--link Raza to Animal--><g id="link_Raza_Animal"><path codeLine="33" d="M450.5,212.12 C450.5,234.62 450.5,265.43 450.5,291 " fill="none" id="Raza-Animal" style="stroke:#181818;stroke-width:1.0;"/><polygon fill="#000000" points="455.5,255.5664,458.4389,246.5213,452.5611,246.5213,455.5,255.5664" style="stroke:#000000;stroke-width:1.0;"/><text fill="#000000" font-family="sans-serif" font-size="13" lengthAdjust="spacing" textLength="52.4126" x="464.5" y="255.0669">clasifica</text><text fill="#000000" font-family="sans-serif" font-size="13" lengthAdjust="spacing" textLength="8.271" x="441.6856" y="232.3416">1</text><text fill="#000000" font-family="sans-serif" font-size="13" lengthAdjust="spacing" textLength="23.0356" x="425.7896" y="279.8597">0..*</text></g><!--reverse link Ingreso to Abandono--><g id="link_Ingreso_Abandono"><path codeLine="36" d="M622.9491,546.1726 C610.9891,564.2526 605.74,572.19 592.91,591.58 " fill="none" id="Ingreso-backto-Abandono" style="stroke:#181818;stroke-width:1.0;"/><polygon fill="none" points="632.88,531.16,617.9449,542.8623,627.9533,549.4829,632.88,531.16" style="stroke:#181818;stroke-width:1.0;"/></g><!--reverse link Ingreso to Entrega--><g id="link_Ingreso_Entrega"><path codeLine="37" d="M684.0519,546.1719 C699.7319,569.8719 711.02,586.94 725.2,608.38 " fill="none" id="Ingreso-backto-Entrega" style="stroke:#181818;stroke-width:1.0;"/><polygon fill="none" points="674.12,531.16,679.048,549.4825,689.0559,542.8613,674.12,531.16" style="stroke:#181818;stroke-width:1.0;"/></g><!--link Animal to Ingreso--><g id="link_Animal_Ingreso"><path codeLine="38" d="M489.92,388.17 C505.03,404.78 523.08,422.8 541.5,437 C555.79,448.02 572.34,458.2 588.25,466.97 " fill="none" id="Animal-Ingreso" style="stroke:#181818;stroke-width:1.0;"/><polygon fill="#000000" points="550.4017,431.6932,545.1813,423.7434,541.5056,428.3302,550.4017,431.6932" style="stroke:#000000;stroke-width:1.0;"/><text fill="#000000" font-family="sans-serif" font-size="13" lengthAdjust="spacing" textLength="75.0991" x="555.5" y="433.0669">provieneDe</text><text fill="#000000" font-family="sans-serif" font-size="13" lengthAdjust="spacing" textLength="8.271" x="486.6759" y="407.801">1</text><text fill="#000000" font-family="sans-serif" font-size="13" lengthAdjust="spacing" textLength="8.271" x="566.0445" y="455.8669">1</text></g><!--link Persona to Ingreso--><g id="link_Persona_Ingreso"><path codeLine="39" d="M631.89,388.18 C636.91,413.71 642.96,444.44 647.38,466.88 " fill="none" id="Persona-Ingreso" style="stroke:#181818;stroke-width:1.0;"/><text fill="#000000" font-family="sans-serif" font-size="13" lengthAdjust="spacing" textLength="196.8472" x="642.5" y="433.0669">entrega &gt;  ' solo si es Entrega</text><text fill="#000000" font-family="sans-serif" font-size="13" lengthAdjust="spacing" textLength="8.271" x="624.6477" y="407.8124">1</text><text fill="#000000" font-family="sans-serif" font-size="13" lengthAdjust="spacing" textLength="23.0356" x="620.7989" y="455.7584">0..*</text></g><!--link Persona to Adopci?n--><g id="link_Persona_Adopci&#243;n"><path codeLine="42" d="M561.97,380.83 C556.17,384.11 550.28,387.23 544.5,390 C507.24,407.86 495.03,405.07 456.5,420 C419.36,434.39 378.61,452.01 345.38,466.85 " fill="none" id="Persona-Adopci&#243;n" style="stroke:#181818;stroke-width:1.0;"/><polygon fill="#000000" points="456.8531,430.412,466.3442,429.8047,464.1747,424.3419,456.8531,430.412" style="stroke:#000000;stroke-width:1.0;"/><text fill="#000000" font-family="sans-serif" font-size="13" lengthAdjust="spacing" textLength="43.3228" x="470.5" y="433.0669">realiza</text><text fill="#000000" font-family="sans-serif" font-size="13" lengthAdjust="spacing" textLength="8.271" x="545.734" y="382.2469">1</text><text fill="#000000" font-family="sans-serif" font-size="13" lengthAdjust="spacing" textLength="23.0356" x="333.9764" y="455.7222">0..*</text></g><!--link Animal to Adopci?n--><g id="link_Animal_Adopci&#243;n"><path codeLine="43" d="M373.96,381.87 C368.1,384.71 362.23,387.46 356.5,390 C321.03,405.74 296.73,388.19 274.5,420 C265.18,433.33 265.26,451.3 267.97,466.63 " fill="none" id="Animal-Adopci&#243;n" style="stroke:#181818;stroke-width:1.0;"/><polygon fill="#000000" points="275.5951,431.6892,284.4947,428.3353,280.8236,423.7448,275.5951,431.6892" style="stroke:#000000;stroke-width:1.0;"/><text fill="#000000" font-family="sans-serif" font-size="13" lengthAdjust="spacing" textLength="93.8438" x="288.5" y="433.0669">esAdoptadoEn</text><text fill="#000000" font-family="sans-serif" font-size="13" lengthAdjust="spacing" textLength="8.271" x="357.6515" y="382.5454">1</text><text fill="#000000" font-family="sans-serif" font-size="13" lengthAdjust="spacing" textLength="24.8066" x="239.7767" y="455.8313">0..1</text></g><!--link N1 to Ingreso--><g id="link_N1_Ingreso"><path codeLine="54" d="M884.99,390.36 C875.61,407.19 863.13,424.79 847.5,437 C816.76,461.02 776.41,475.67 740.48,484.56 " fill="none" id="N1-Ingreso" style="stroke:#181818;stroke-width:1.0;stroke-dasharray:7.0,7.0;"/></g><!--link N3 to Adopci?n--><g id="link_N3_Adopci&#243;n"><path codeLine="68" d="M189.3,367.32 C201.6,386.8 218.82,413.71 234.5,437 C241.08,446.78 248.42,457.32 255.14,466.83 " fill="none" id="N3-Adopci&#243;n" style="stroke:#181818;stroke-width:1.0;stroke-dasharray:7.0,7.0;"/></g><!--SRC=[VLJDRXen4BxdAQPS-YD0WTnGGQ8DIf0QgA0vHJqCtid6bR5NjgbKqZvL7g4lLgz_rjaDAHTsPZwFl_bcnaoWCR0m5J5EZsVWVXICYR6Qo_BiZtSoZzlW4GD8kw-C2D6vv7iK8SuUU1NZS7S-78w-UxTK-vsc4u623DEyOlplaynvSUS-aTbu_LAMceo2SCKziGUyLXgZUrAWfKncXx9GKdMmoHt0TKWSIjJTKXRIQYfThSdnbRHHCXRVgYBGvvfOYxnNSezSl52fKA7CBhFaJtNuy5lOa436bIJZHF92y7lEq4Cz93OFUgCU30RG-z3pVO89C2Kj9qamUmqOMbP3Kzw8zHaIqBNfDMma6LlWhTIbZx_TsQJtoqYKs0TYwdIV-qlG2LHQ_QoBk4nbn5PqsEK351B3h2Pcb51Wk1lgvi98kT7xFqaRZ4kh2GK_9dqwZEj1RiF9r9R5GYrarcb3zJImsCztKbaqx-DCMG8qi1fvyswp6foFmsvSkUgrlpmaJwLEuV6psbU2BFRXafiV1sanhEi0jhp1KTu6cCx00vh9lqOXy5Wg-9L7iV6jFtrPNis_hJVBzVPatgXfAssICX-UrvCOjwQVTaN9VbYGi2goy19uOpM2uR2PgROyuo3FKbegDI-m21evMg4bm_fbWZTJa0SXMhnYF3vlJhrd1vBt19TnpIL0ErGkSgVYAtRhoaxbEx6h0xcLHJy7sitZEEOX4zv8bNlfS9PNAZUA9920c-NsPWtxUA1DxC8JQwRu7m00]--></g></svg>