<svg xmlns="http://www.w3.org/2000/svg" xmlns:xlink="http://www.w3.org/1999/xlink" contentStyleType="text/css" height="300px" preserveAspectRatio="none" style="width:785px;height:300px;background:#FFFFFF;" version="1.1" viewBox="0 0 785 300" width="785px" zoomAndPan="magnify"><defs/><g><!--class Departamento--><g id="elem_Departamento"><rect codeLine="1" fill="#F1F1F1" height="80.5938" id="Departamento" rx="2.5" ry="2.5" style="stroke:#181818;stroke-width:0.5;" width="133.8623" x="527.5" y="213"/><ellipse cx="542.5" cy="229" fill="#ADD1B2" rx="11" ry="11" style="stroke:#181818;stroke-width:1.0;"/><path d="M545.4688,234.6406 Q544.8906,234.9375 544.25,235.0781 Q543.6094,235.2344 542.9063,235.2344 Q540.4063,235.2344 539.0781,233.5938 Q537.7656,231.9375 537.7656,228.8125 Q537.7656,225.6875 539.0781,224.0313 Q540.4063,222.375 542.9063,222.375 Q543.6094,222.375 544.25,222.5313 Q544.9063,222.6875 545.4688,222.9844 L545.4688,225.7031 Q544.8438,225.125 544.25,224.8594 Q543.6563,224.5781 543.0313,224.5781 Q541.6875,224.5781 541,225.6563 Q540.3125,226.7188 540.3125,228.8125 Q540.3125,230.9063 541,231.9844 Q541.6875,233.0469 543.0313,233.0469 Q543.6563,233.0469 544.25,232.7813 Q544.8438,232.5 545.4688,231.9219 L545.4688,234.6406 Z " fill="#000000"/><text fill="#000000" font-family="sans-serif" font-size="14" lengthAdjust="spacing" textLength="101.8623" x="556.5" y="233.8467">Departamento</text><line style="stroke:#181818;stroke-width:0.5;" x1="528.5" x2="660.3623" y1="245" y2="245"/><text fill="#000000" font-family="sans-serif" font-size="14" lengthAdjust="spacing" textLength="105.2803" x="533.5" y="261.9951">nombre: String</text><text fill="#000000" font-family="sans-serif" font-size="14" lengthAdjust="spacing" textLength="113.8115" x="533.5" y="278.292">localidad: String</text><line style="stroke:#181818;stroke-width:0.5;" x1="528.5" x2="660.3623" y1="285.5938" y2="285.5938"/></g><!--class Empleado--><g id="elem_Empleado"><rect codeLine="5" fill="#F1F1F1" height="129.4844" id="Empleado" rx="2.5" ry="2.5" style="stroke:#181818;stroke-width:0.5;" width="133.1875" x="528" y="7"/><ellipse cx="557.0774" cy="23" fill="#ADD1B2" rx="11" ry="11" style="stroke:#181818;stroke-width:1.0;"/><path d="M560.0462,28.6406 Q559.4681,28.9375 558.8274,29.0781 Q558.1868,29.2344 557.4837,29.2344 Q554.9837,29.2344 553.6556,27.5938 Q552.3431,25.9375 552.3431,22.8125 Q552.3431,19.6875 553.6556,18.0313 Q554.9837,16.375 557.4837,16.375 Q558.1868,16.375 558.8274,16.5313 Q559.4837,16.6875 560.0462,16.9844 L560.0462,19.7031 Q559.4212,19.125 558.8274,18.8594 Q558.2337,18.5781 557.6087,18.5781 Q556.2649,18.5781 555.5774,19.6563 Q554.8899,20.7188 554.8899,22.8125 Q554.8899,24.9063 555.5774,25.9844 Q556.2649,27.0469 557.6087,27.0469 Q558.2337,27.0469 558.8274,26.7813 Q559.4212,26.5 560.0462,25.9219 L560.0462,28.6406 Z " fill="#000000"/><text fill="#000000" font-family="sans-serif" font-size="14" lengthAdjust="spacing" textLength="69.9043" x="574.2058" y="27.8467">Empleado</text><line style="stroke:#181818;stroke-width:0.5;" x1="529" x2="660.1875" y1="39" y2="39"/><text fill="#000000" font-family="sans-serif" font-size="14" lengthAdjust="spacing" textLength="105.2803" x="534" y="55.9951">nombre: String</text><text fill="#000000" font-family="sans-serif" font-size="14" lengthAdjust="spacing" textLength="118.3643" x="534" y="72.292">fechaInicio: Date</text><text fill="#000000" font-family="sans-serif" font-size="14" lengthAdjust="spacing" textLength="102.1357" x="534" y="88.5889">fechaFin: Date</text><text fill="#000000" font-family="sans-serif" font-size="14" lengthAdjust="spacing" textLength="105.3281" x="534" y="104.8857">salario: Double</text><text fill="#000000" font-family="sans-serif" font-size="14" lengthAdjust="spacing" textLength="121.1875" x="534" y="121.1826">comisi&#243;n: Double</text><line style="stroke:#181818;stroke-width:0.5;" x1="529" x2="660.1875" y1="128.4844" y2="128.4844"/></g><g id="elem_GMN6"><path d="M99,233.5 L99,273.7656 A0,0 0 0 0 99,273.7656 L491.7441,273.7656 A0,0 0 0 0 491.7441,273.7656 L491.7441,257.5 L527.24,253.5 L491.7441,249.5 L491.7441,243.5 L481.7441,233.5 L99,233.5 A0,0 0 0 0 99,233.5 " fill="#FEFFDD" style="stroke:#181818;stroke-width:0.5;"/><path d="M481.7441,233.5 L481.7441,243.5 L491.7441,243.5 L481.7441,233.5 " fill="#FEFFDD" style="stroke:#181818;stroke-width:0.5;"/><text fill="#000000" font-family="sans-serif" font-size="13" lengthAdjust="spacing" textLength="371.7441" x="105" y="250.5669">- La combinaci&#243;n nombre y localidad no se puede repetir</text><text fill="#000000" font-family="sans-serif" font-size="13" lengthAdjust="spacing" textLength="367.4658" x="105" y="265.6997">- Un departamento no puede tener m&#225;s de 5 empleados</text></g><g id="elem_GMN9"><path d="M6,36 L6,106.5313 A0,0 0 0 0 6,106.5313 L493.4258,106.5313 A0,0 0 0 0 493.4258,106.5313 L493.4258,75.5 L527.95,71.5 L493.4258,67.5 L493.4258,46 L483.4258,36 L6,36 A0,0 0 0 0 6,36 " fill="#FEFFDD" style="stroke:#181818;stroke-width:0.5;"/><path d="M483.4258,36 L483.4258,46 L493.4258,46 L483.4258,36 " fill="#FEFFDD" style="stroke:#181818;stroke-width:0.5;"/><text fill="#000000" font-family="sans-serif" font-size="13" lengthAdjust="spacing" textLength="277.8115" x="12" y="53.0669">- Un empleado no puede ser su propio jefe</text><text fill="#000000" font-family="sans-serif" font-size="13" lengthAdjust="spacing" textLength="362.7114" x="12" y="68.1997">- La comisi&#243;n es un porcentaje del salario entre 0 y 100</text><text fill="#000000" font-family="sans-serif" font-size="13" lengthAdjust="spacing" textLength="283.7974" x="12" y="83.3325">- Los nombres de los empleados son &#250;nicos</text><text fill="#000000" font-family="sans-serif" font-size="13" lengthAdjust="spacing" textLength="466.4258" x="12" y="98.4653">- La fecha de inicio del contrato no puede ser posterior a la fecha de fin</text></g><!--link Empleado to Departamento--><g id="link_Empleado_Departamento"><path codeLine="13" d="M594.5,136.21 C594.5,161.8 594.5,190.5 594.5,212.98 " fill="none" id="Empleado-Departamento" style="stroke:#181818;stroke-width:1.0;"/><polygon fill="#000000" points="599.5,179.5664,602.4389,170.5213,596.5611,170.5213,599.5,179.5664" style="stroke:#000000;stroke-width:1.0;"/><text fill="#000000" font-family="sans-serif" font-size="13" lengthAdjust="spacing" textLength="62.6577" x="608.5" y="179.0669">trabajaEn</text><text fill="#000000" font-family="sans-serif" font-size="13" lengthAdjust="spacing" textLength="8.271" x="586.0423" y="156.6059">1</text><text fill="#000000" font-family="sans-serif" font-size="13" lengthAdjust="spacing" textLength="23.0356" x="569.5383" y="201.8398">0..*</text></g><!--link Empleado to Empleado--><g id="link_Empleado_Empleado"><path codeLine="14" d="M661.37,52.43 C680.88,53.09 696,59.45 696,71.5 C696,83.55 680.88,89.91 661.37,90.57 " fill="none" id="Empleado-Empleado" style="stroke:#181818;stroke-width:1.0;"/><polygon fill="#000000" points="701.169,76.5635,703.8005,67.4243,697.926,67.623,701.169,76.5635" style="stroke:#000000;stroke-width:1.0;"/><text fill="#000000" font-family="sans-serif" font-size="13" lengthAdjust="spacing" textLength="57.3511" x="715" y="76.0669">tieneJefe</text><text fill="#000000" font-family="sans-serif" font-size="13" lengthAdjust="spacing" textLength="53.3457" x="669.1088" y="47.282">Jefe 0..1</text><text fill="#000000" font-family="sans-serif" font-size="13" lengthAdjust="spacing" textLength="92.9487" x="669.3329" y="104.4927">Subordinado *</text></g><!--SRC=[ZL8nJiD04EnvnIWD4bAYfA194Gc9884GJSG3rkTrkEXyQzsT2uHu36-Weyt7M5yS9muDAInbTtPsPlO0m3YA4VVSK4XKiq-2ZolqFozr4NY9JGhMRuUo4qFEbbIEEf_vU-1RrurZAl_1LR5veqTlZPKbxYdnkFDW_KKvagEGmT8MxbGtKjjezzz-r3c8khwBOYpf3iynLmQ1ayK4qoacyzdiPZBAOOaKgA0ThJrM5qDFN35qf1_Uj8M4qlgkfon7d39Ozfp1grx8Dl2MQecQHw88SgYbP2Uv_IA9uRXAa6gaPN0vnJDrLWjTPZgtVQvuFrr5IuYCfkMI4RZXPCCPmQj7UNvkHH-WIRK6rFklg03SWdiRVMA-pFh-2ZtQ7UyuJf_uexB75asGnWfscieVMuSBWYDQZqQ2KOMqOzNZZeU7bjJlN1qlvlDpXXng5qRMx_Jlu01HFFO_-inwDyFI_CewlCrlC6yoeYieNKXl92PM0G44TpPOMJyAw1S0]--></g></svg>