<svg xmlns="http://www.w3.org/2000/svg" xmlns:xlink="http://www.w3.org/1999/xlink" contentStyleType="text/css" height="359px" preserveAspectRatio="none" style="width:850px;height:359px;background:#FFFFFF;" version="1.1" viewBox="0 0 850 359" width="850px" zoomAndPan="magnify"><defs/><g><!--class Usuario--><g id="elem_Usuario"><rect codeLine="0" fill="#F1F1F1" height="83.1875" id="Usuario" rx="2.5" ry="2.5" style="stroke:#181818;stroke-width:0.5;" width="127.3701" x="91.5" y="138"/><text fill="#000000" font-family="sans-serif" font-size="14" lengthAdjust="spacing" textLength="53.2041" x="128.583" y="155.9951">Usuario</text><line style="stroke:#181818;stroke-width:0.5;" x1="92.5" x2="217.8701" y1="164.2969" y2="164.2969"/><text fill="#000000" font-family="sans-serif" font-size="14" lengthAdjust="spacing" textLength="105.2803" x="97.5" y="181.292">nombre: String</text><text fill="#000000" font-family="sans-serif" font-size="14" lengthAdjust="spacing" textLength="115.3701" x="97.5" y="197.5889">provincia: String</text><text fill="#000000" font-family="sans-serif" font-size="14" lengthAdjust="spacing" textLength="108.8555" x="97.5" y="213.8857">fechaAlta: Date</text></g><!--class Producto--><g id="elem_Producto"><rect codeLine="6" fill="#F1F1F1" height="83.1875" id="Producto" rx="2.5" ry="2.5" style="stroke:#181818;stroke-width:0.5;" width="142.9971" x="358.5" y="138"/><text fill="#000000" font-family="sans-serif" font-size="14" lengthAdjust="spacing" textLength="62.2754" x="398.8608" y="155.9951">Producto</text><line style="stroke:#181818;stroke-width:0.5;" x1="359.5" x2="500.4971" y1="164.2969" y2="164.2969"/><text fill="#000000" font-family="sans-serif" font-size="14" lengthAdjust="spacing" textLength="130.9971" x="364.5" y="181.292">descripci&#243;n: String</text><text fill="#000000" font-family="sans-serif" font-size="14" lengthAdjust="spacing" textLength="98.9912" x="364.5" y="197.5889">precio: Money</text><text fill="#000000" font-family="sans-serif" font-size="14" lengthAdjust="spacing" textLength="96.6807" x="364.5" y="213.8857">stock: Integer</text></g><!--class Pedido--><g id="elem_Pedido"><rect codeLine="12" fill="#F1F1F1" height="66.8906" id="Pedido" rx="2.5" ry="2.5" style="stroke:#181818;stroke-width:0.5;" width="148.5205" x="246.5" y="284"/><text fill="#000000" font-family="sans-serif" font-size="14" lengthAdjust="spacing" textLength="47.2842" x="297.1182" y="301.9951">Pedido</text><line style="stroke:#181818;stroke-width:0.5;" x1="247.5" x2="394.0205" y1="310.2969" y2="310.2969"/><text fill="#000000" font-family="sans-serif" font-size="14" lengthAdjust="spacing" textLength="136.5205" x="252.5" y="327.292">fechaCompra: Date</text><text fill="#000000" font-family="sans-serif" font-size="14" lengthAdjust="spacing" textLength="120.4082" x="252.5" y="343.5889">cantidad: Integer</text></g><ellipse cx="321" cy="179.5" fill="#181818" rx="2" ry="2" style="stroke:#181818;stroke-width:1.0;"/><g id="elem_GMN11"><path d="M346,6 L346,76.5313 A0,0 0 0 0 346,76.5313 L426,76.5313 L430,137.61 L434,76.5313 L514.3354,76.5313 A0,0 0 0 0 514.3354,76.5313 L514.3354,16 L504.3354,6 L346,6 A0,0 0 0 0 346,6 " fill="#FEFFDD" style="stroke:#181818;stroke-width:0.5;"/><path d="M504.3354,6 L504.3354,16 L514.3354,16 L504.3354,6 " fill="#FEFFDD" style="stroke:#181818;stroke-width:0.5;"/><text fill="#000000" font-family="sans-serif" font-size="13" lengthAdjust="spacing" textLength="44.3701" x="352" y="23.0669">RN-01:</text><text fill="#000000" font-family="sans-serif" font-size="13" lengthAdjust="spacing" textLength="130.8062" x="368.5293" y="38.1997">a) Precio obligatorio</text><text fill="#000000" font-family="sans-serif" font-size="13" lengthAdjust="spacing" textLength="112.4297" x="368.5293" y="53.3325">b) Precio positivo</text><text fill="#000000" font-family="sans-serif" font-size="13" lengthAdjust="spacing" textLength="107.4087" x="368.5293" y="68.4653">c) Stock positivo</text></g><g id="elem_GMN14"><path d="M6,14 L6,69.3984 A0,0 0 0 0 6,69.3984 L151,69.3984 L155,137.82 L159,69.3984 L303.6689,69.3984 A0,0 0 0 0 303.6689,69.3984 L303.6689,24 L293.6689,14 L6,14 A0,0 0 0 0 6,14 " fill="#FEFFDD" style="stroke:#181818;stroke-width:0.5;"/><path d="M293.6689,14 L293.6689,24 L303.6689,24 L293.6689,14 " fill="#FEFFDD" style="stroke:#181818;stroke-width:0.5;"/><text fill="#000000" font-family="sans-serif" font-size="13" lengthAdjust="spacing" textLength="44.3701" x="12" y="31.0669">RN-02:</text><text fill="#000000" font-family="sans-serif" font-size="13" lengthAdjust="spacing" textLength="260.1396" x="28.5293" y="46.1997">a) Nombre y fecha de altra obligatorios.</text><text fill="#000000" font-family="sans-serif" font-size="13" lengthAdjust="spacing" textLength="170.1997" x="28.5293" y="61.3325">b) No se repiten nombres.</text></g><g id="elem_GMN17"><path d="M431,282 L431,313.5 L395.68,317.5 L431,321.5 L431,352.5313 A0,0 0 0 0 431,352.5313 L843.0283,352.5313 A0,0 0 0 0 843.0283,352.5313 L843.0283,292 L833.0283,282 L431,282 A0,0 0 0 0 431,282 " fill="#FEFFDD" style="stroke:#181818;stroke-width:0.5;"/><path d="M833.0283,282 L833.0283,292 L843.0283,292 L833.0283,282 " fill="#FEFFDD" style="stroke:#181818;stroke-width:0.5;"/><text fill="#000000" font-family="sans-serif" font-size="13" lengthAdjust="spacing" textLength="44.3701" x="437" y="299.0669">RN-03:</text><text fill="#000000" font-family="sans-serif" font-size="13" lengthAdjust="spacing" textLength="374.499" x="453.5293" y="314.1997">a) Por defecto: cantidad = 1, fechaCompra=fecha actual.</text><text fill="#000000" font-family="sans-serif" font-size="13" lengthAdjust="spacing" textLength="163.7632" x="453.5293" y="329.3325">b) Cantidad entre 0 y 10.</text><text fill="#000000" font-family="sans-serif" font-size="13" lengthAdjust="spacing" textLength="263.8213" x="453.5293" y="344.4653">c) No se pueden hacer pedido en agosto</text></g><!--link Usuario to apoint6--><g id="link_Usuario_apoint6"><path d="M218.71,179.5 C259.67,179.5 307.26,179.5 318.52,179.5 " fill="none" id="Usuario-apoint6" style="stroke:#181818;stroke-width:1.0;"/><polygon fill="#000000" points="245.75,168.0664,236.7049,165.1275,236.7049,171.0053,245.75,168.0664" style="stroke:#000000;stroke-width:1.0;"/><text fill="#000000" font-family="sans-serif" font-size="13" lengthAdjust="spacing" textLength="51.2573" x="249.75" y="172.5669">Compra</text><text fill="#000000" font-family="sans-serif" font-size="13" lengthAdjust="spacing" textLength="6.5" x="226.8482" y="175.6495">*</text></g><!--link apoint6 to Producto--><g id="link_apoint6_Producto"><path d="M323.13,179.5 C334.82,179.5 346.51,179.5 358.2,179.5 " fill="none" id="apoint6-Producto" style="stroke:#181818;stroke-width:1.0;"/><text fill="#000000" font-family="sans-serif" font-size="13" lengthAdjust="spacing" textLength="6.5" x="344.0463" y="175.7436">*</text></g><!--link apoint6 to Pedido--><g id="link_apoint6_Pedido"><path d="M321,182.03 C321,191.89 321,247.34 321,283.88 " fill="none" id="apoint6-Pedido" style="stroke:#181818;stroke-width:1.0;stroke-dasharray:7.0,7.0;"/></g><!--SRC=[JOvB2iCm34JtESKqctveSe0k2YKN284Um9L58x3Z8DkBthxKk26xqSmJCm0mYsMGA3bkyB_Ph-a3p_x56flY7mTd8iUY3xAGox-_ulMIlQlK8mOIGnAMoZvZDYe1xQL5f_AUKrVqgC5cIk668VXL3Uu5FrN-kW5dz3r6jc83Qid4CQdGhcLRfFke3li2]--></g></svg>