<svg xmlns="http://www.w3.org/2000/svg" xmlns:xlink="http://www.w3.org/1999/xlink" contentStyleType="text/css" height="388px" preserveAspectRatio="none" style="width:933px;height:388px;background:#FFFFFF;" version="1.1" viewBox="0 0 933 388" width="933px" zoomAndPan="magnify"><defs/><g><!--class Usuario--><g id="elem_Usuario"><rect codeLine="0" fill="#F1F1F1" height="83.1875" id="Usuario" rx="2.5" ry="2.5" style="stroke:#181818;stroke-width:0.5;" width="127.3701" x="103.5" y="298"/><text fill="#000000" font-family="sans-serif" font-size="14" lengthAdjust="spacing" textLength="53.2041" x="140.583" y="315.9951">Usuario</text><line style="stroke:#181818;stroke-width:0.5;" x1="104.5" x2="229.8701" y1="324.2969" y2="324.2969"/><text fill="#000000" font-family="sans-serif" font-size="14" lengthAdjust="spacing" textLength="105.2803" x="109.5" y="341.292">nombre: String</text><text fill="#000000" font-family="sans-serif" font-size="14" lengthAdjust="spacing" textLength="115.3701" x="109.5" y="357.5889">provincia: String</text><text fill="#000000" font-family="sans-serif" font-size="14" lengthAdjust="spacing" textLength="108.8555" x="109.5" y="373.8857">fechaAlta: Date</text></g><!--class Producto--><g id="elem_Producto"><rect codeLine="6" fill="#F1F1F1" height="83.1875" id="Producto" rx="2.5" ry="2.5" style="stroke:#181818;stroke-width:0.5;" width="142.9971" x="338.5" y="138"/><text fill="#000000" font-family="sans-serif" font-size="14" lengthAdjust="spacing" textLength="62.2754" x="378.8608" y="155.9951">Producto</text><line style="stroke:#181818;stroke-width:0.5;" x1="339.5" x2="480.4971" y1="164.2969" y2="164.2969"/><text fill="#000000" font-family="sans-serif" font-size="14" lengthAdjust="spacing" textLength="130.9971" x="344.5" y="181.292">descripci&#243;n: String</text><text fill="#000000" font-family="sans-serif" font-size="14" lengthAdjust="spacing" textLength="98.9912" x="344.5" y="197.5889">precio: Money</text><text fill="#000000" font-family="sans-serif" font-size="14" lengthAdjust="spacing" textLength="96.6807" x="344.5" y="213.8857">stock: Integer</text></g><!--class Pedido--><g id="elem_Pedido"><rect codeLine="12" fill="#F1F1F1" height="66.8906" id="Pedido" rx="2.5" ry="2.5" style="stroke:#181818;stroke-width:0.5;" width="148.5205" x="329.5" y="306"/><text fill="#000000" font-family="sans-serif" font-size="14" lengthAdjust="spacing" textLength="47.2842" x="380.1182" y="323.9951">Pedido</text><line style="stroke:#181818;stroke-width:0.5;" x1="330.5" x2="477.0205" y1="332.2969" y2="332.2969"/><text fill="#000000" font-family="sans-serif" font-size="14" lengthAdjust="spacing" textLength="136.5205" x="335.5" y="349.292">fechaCompra: Date</text><text fill="#000000" font-family="sans-serif" font-size="14" lengthAdjust="spacing" textLength="120.4082" x="335.5" y="365.5889">cantidad: Integer</text></g><g id="elem_GMN7"><path d="M326,6 L326,76.5313 A0,0 0 0 0 326,76.5313 L406,76.5313 L410,137.61 L414,76.5313 L494.3354,76.5313 A0,0 0 0 0 494.3354,76.5313 L494.3354,16 L484.3354,6 L326,6 A0,0 0 0 0 326,6 " fill="#FEFFDD" style="stroke:#181818;stroke-width:0.5;"/><path d="M484.3354,6 L484.3354,16 L494.3354,16 L484.3354,6 " fill="#FEFFDD" style="stroke:#181818;stroke-width:0.5;"/><text fill="#000000" font-family="sans-serif" font-size="13" lengthAdjust="spacing" textLength="44.3701" x="332" y="23.0669">RN-01:</text><text fill="#000000" font-family="sans-serif" font-size="13" lengthAdjust="spacing" textLength="130.8062" x="348.5293" y="38.1997">a) Precio obligatorio</text><text fill="#000000" font-family="sans-serif" font-size="13" lengthAdjust="spacing" textLength="112.4297" x="348.5293" y="53.3325">b) Precio positivo</text><text fill="#000000" font-family="sans-serif" font-size="13" lengthAdjust="spacing" textLength="107.4087" x="348.5293" y="68.4653">c) Stock positivo</text></g><g id="elem_GMN10"><path d="M6,152 L6,207.3984 A0,0 0 0 0 6,207.3984 L153.04,207.3984 L163.92,297.89 L161.04,207.3984 L303.6689,207.3984 A0,0 0 0 0 303.6689,207.3984 L303.6689,162 L293.6689,152 L6,152 A0,0 0 0 0 6,152 " fill="#FEFFDD" style="stroke:#181818;stroke-width:0.5;"/><path d="M293.6689,152 L293.6689,162 L303.6689,162 L293.6689,152 " fill="#FEFFDD" style="stroke:#181818;stroke-width:0.5;"/><text fill="#000000" font-family="sans-serif" font-size="13" lengthAdjust="spacing" textLength="44.3701" x="12" y="169.0669">RN-02:</text><text fill="#000000" font-family="sans-serif" font-size="13" lengthAdjust="spacing" textLength="260.1396" x="28.5293" y="184.1997">a) Nombre y fecha de altra obligatorios.</text><text fill="#000000" font-family="sans-serif" font-size="13" lengthAdjust="spacing" textLength="170.1997" x="28.5293" y="199.3325">b) No se repiten nombres.</text></g><g id="elem_GMN13"><path d="M514,304 L514,335.5 L478.68,339.5 L514,343.5 L514,374.5313 A0,0 0 0 0 514,374.5313 L926.0283,374.5313 A0,0 0 0 0 926.0283,374.5313 L926.0283,314 L916.0283,304 L514,304 A0,0 0 0 0 514,304 " fill="#FEFFDD" style="stroke:#181818;stroke-width:0.5;"/><path d="M916.0283,304 L916.0283,314 L926.0283,314 L916.0283,304 " fill="#FEFFDD" style="stroke:#181818;stroke-width:0.5;"/><text fill="#000000" font-family="sans-serif" font-size="13" lengthAdjust="spacing" textLength="44.3701" x="520" y="321.0669">RN-03:</text><text fill="#000000" font-family="sans-serif" font-size="13" lengthAdjust="spacing" textLength="374.499" x="536.5293" y="336.1997">a) Por defecto: cantidad = 1, fechaCompra=fecha actual.</text><text fill="#000000" font-family="sans-serif" font-size="13" lengthAdjust="spacing" textLength="163.7632" x="536.5293" y="351.3325">b) Cantidad entre 0 y 10.</text><text fill="#000000" font-family="sans-serif" font-size="13" lengthAdjust="spacing" textLength="263.8213" x="536.5293" y="366.4653">c) No se pueden hacer pedido en agosto</text></g><!--reverse link Usuario to Pedido--><g id="link_Usuario_Pedido"><path codeLine="26" d="M242.51,339.5 C272.95,339.5 297.61,339.5 329.37,339.5 " fill="none" id="Usuario-backto-Pedido" style="stroke:#181818;stroke-width:1.0;"/><polygon fill="#181818" points="230.51,339.5,236.51,343.5,242.51,339.5,236.51,335.5,230.51,339.5" style="stroke:#181818;stroke-width:1.0;"/><polygon fill="#000000" points="261,328.0664,251.9549,325.1275,251.9549,331.0053,261,328.0664" style="stroke:#000000;stroke-width:1.0;"/><text fill="#000000" font-family="sans-serif" font-size="13" lengthAdjust="spacing" textLength="43.3228" x="265" y="332.5669">realiza</text><text fill="#000000" font-family="sans-serif" font-size="13" lengthAdjust="spacing" textLength="6.5" x="314.9328" y="335.7598">*</text></g><!--reverse link Producto to Pedido--><g id="link_Producto_Pedido"><path codeLine="27" d="M407.9946,233.1814 C406.9946,259.5114 406.17,281.35 405.24,305.91 " fill="none" id="Producto-backto-Pedido" style="stroke:#181818;stroke-width:1.0;"/><polygon fill="#181818" points="408.45,221.19,404.2252,227.0339,407.9946,233.1814,412.2194,227.3375,408.45,221.19" style="stroke:#181818;stroke-width:1.0;"/><polygon fill="#000000" points="411.8108,264.5628,415.0899,255.6355,409.2163,255.413,411.8108,264.5628" style="stroke:#000000;stroke-width:1.0;"/><text fill="#000000" font-family="sans-serif" font-size="13" lengthAdjust="spacing" textLength="67.0249" x="421" y="264.0669">esParteDe</text><text fill="#000000" font-family="sans-serif" font-size="13" lengthAdjust="spacing" textLength="6.5" x="398.9899" y="294.9111">*</text></g><!--SRC=[NSv12W8n30NG_PmYpaOO60_WGX0yG3SUeAOV9z1E9MaNUdgT5XUwpC-3_uc85WaW5kM8WRutqgCyAI7Te3QqV2ShnxhPw0rsa9fY_-pFbbayIrvXBRbQzIgPfbdblfIPncaaXo0Xqv4KFihBqwbPfpbKBXl-Sp3djU22Z_oTeB2YmhsnBta3]--></g></svg>